<?xml version="1.0" standalone="no"?>
<!DOCTYPE svg PUBLIC "-//W3C//DTD SVG 20010904//EN"
 "http://www.w3.org/TR/2001/REC-SVG-20010904/DTD/svg10.dtd">
<svg version="1.0" xmlns="http://www.w3.org/2000/svg"
 width="600.000000pt" height="600.000000pt" viewBox="0 0 600.000000 600.000000"
 preserveAspectRatio="xMidYMid meet">
<metadata>
Created by potrace 1.14, written by Peter Selinger 2001-2017
</metadata>
<g transform="translate(0.000000,600.000000) scale(0.100000,-0.100000)"
fill="#000000" stroke="none">
<path d="M0 3000 l0 -3000 3000 0 3000 0 0 3000 0 3000 -3000 0 -3000 0 0
-3000z m3656 1691 l26 -21 -26 -10 c-31 -11 -35 -20 -6 -13 11 3 28 2 37 -1
15 -6 15 -8 3 -16 -8 -6 -24 -10 -35 -10 -12 0 -38 -9 -59 -20 -21 -10 -57
-22 -80 -25 -36 -5 -45 -2 -79 27 -36 32 -37 34 -22 56 9 12 33 31 53 42 49
27 148 22 188 -9z m-241 -91 c3 -5 2 -10 -3 -10 -5 0 -9 -6 -9 -14 0 -11 8
-13 26 -10 32 7 68 -24 76 -64 3 -15 11 -44 16 -65 6 -22 9 -41 7 -43 -3 -2
-24 6 -49 19 -61 31 -89 76 -89 143 0 50 10 68 25 44z m300 -10 c-3 -5 -21 -9
-38 -9 l-32 2 35 7 c19 4 36 8 38 9 2 0 0 -3 -3 -9z m-2332 -24 c6 -16 -19
-30 -28 -16 -7 11 2 30 15 30 4 0 10 -6 13 -14z m2182 -31 c0 -31 -49 -28 -53
3 -3 20 0 23 25 20 20 -2 28 -8 28 -23z m-1589 -30 c0 -28 -2 -31 -27 -27 -20
3 -28 11 -31 31 -4 24 -1 27 27 27 27 0 30 -3 31 -31z m1709 -12 c-9 -37 -18
-20 -9 19 4 18 9 27 11 20 3 -7 2 -24 -2 -39z m-350 28 c-12 -20 -103 -42
-137 -33 l-33 8 60 16 c70 18 119 22 110 9z m25 -16 c0 -3 -16 -11 -36 -20
-19 -8 -33 -19 -29 -25 3 -6 11 -8 16 -5 22 14 6 -14 -26 -45 l-35 -34 0 40
c0 52 8 62 61 78 24 8 45 14 47 15 1 1 2 -1 2 -4z m359 -27 c-5 -18 -9 -34 -9
-35 0 -1 -10 -8 -22 -14 -22 -11 -22 -11 -6 7 9 10 21 31 27 47 15 38 22 34
10 -5z m-123 -80 c13 -6 21 -15 18 -19 -8 -14 -55 14 -70 42 -8 16 -14 38 -14
51 1 18 6 13 22 -20 12 -24 31 -49 44 -54z m-426 62 c0 -5 5 -10 11 -10 5 0 7
5 3 11 -4 7 2 9 17 7 21 -3 25 -11 33 -61 11 -72 4 -81 -58 -72 l-46 7 0 64
c0 57 2 64 20 64 11 0 20 -4 20 -10z m313 -69 c16 -6 39 -11 53 -11 13 0 24
-4 24 -10 0 -35 -137 16 -160 60 -18 34 -11 35 23 3 17 -18 45 -37 60 -42z
m-113 9 c0 -5 9 -10 21 -10 33 0 56 -17 67 -50 9 -26 8 -32 -11 -46 l-22 -16
24 7 c16 5 21 4 17 -4 -4 -7 -1 -9 8 -5 9 3 19 -3 27 -18 6 -13 23 -36 36 -52
13 -16 22 -35 19 -42 -3 -9 2 -14 14 -14 10 0 22 -9 25 -20 3 -11 11 -20 17
-20 6 0 5 -7 -3 -16 -12 -15 -11 -16 8 -10 31 10 38 -10 14 -40 -12 -15 -21
-35 -21 -45 0 -24 -11 -24 -41 -1 -13 10 -37 23 -52 30 -37 16 -44 38 -23 74
10 16 15 32 12 35 -10 10 -45 -28 -40 -42 3 -7 1 -16 -4 -19 -15 -9 -35 21
-29 44 5 21 -7 28 -18 10 -9 -15 -25 -12 -25 5 0 8 -9 19 -20 25 -11 6 -25 20
-31 31 -9 18 -7 27 12 53 l22 31 -25 -23 c-24 -22 -25 -22 -42 -4 -16 18 -36
73 -36 98 0 20 52 64 76 64 13 0 24 -4 24 -10z m-400 -70 c0 -5 -7 -10 -16
-10 -8 0 -12 5 -9 10 3 6 10 10 16 10 5 0 9 -4 9 -10z m617 -6 c5 -16 -78 -36
-94 -22 -7 6 -13 16 -13 24 0 17 101 15 107 -2z m-1247 -19 c0 -8 -7 -15 -15
-15 -8 0 -15 7 -15 15 0 8 7 15 15 15 8 0 15 -7 15 -15z m869 9 l31 -6 0 -116
c0 -111 -1 -114 -18 -99 -23 21 -46 22 -62 2 -19 -23 -3 -51 40 -68 64 -25 49
-43 -30 -37 -14 1 -29 6 -35 11 -11 11 -18 262 -8 298 6 22 26 26 82 15z
m-584 -34 c3 -5 1 -10 -4 -10 -6 0 -11 5 -11 10 0 6 2 10 4 10 3 0 8 -4 11
-10z m968 3 c-7 -2 -21 -2 -30 0 -10 3 -4 5 12 5 17 0 24 -2 18 -5z m-56 -35
c-3 -8 -6 -5 -6 6 -1 11 2 17 5 13 3 -3 4 -12 1 -19z m81 -30 c-2 -41 -7 -54
-20 -56 -13 -3 -18 3 -18 22 0 14 -4 26 -10 26 -15 0 -12 47 3 53 40 17 48 8
45 -45z m-328 -28 c5 0 10 5 12 11 2 6 26 -17 53 -52 40 -51 45 -61 27 -57
-35 9 -26 -1 18 -21 22 -10 37 -21 33 -25 -4 -4 -1 -11 7 -16 11 -7 2 -10 -28
-10 -58 0 -133 20 -125 33 3 6 1 7 -5 3 -8 -4 -11 23 -10 91 1 54 3 86 5 71 3
-16 8 -28 13 -28z m-500 -2 c0 -24 -26 -23 -33 1 -3 15 0 19 14 18 11 -1 19
-9 19 -19z m863 -30 c-25 -27 -31 -22 -19 17 10 31 12 33 23 18 11 -13 10 -20
-4 -35z m37 -23 c15 -18 6 -45 -14 -45 -22 0 -38 34 -24 48 16 16 23 15 38 -3z
m-512 -55 c-7 -11 -15 -15 -17 -9 -2 6 3 15 10 20 20 12 21 11 7 -11z m-1430
-7 c5 -18 -28 -29 -38 -12 -5 7 -6 17 -3 22 7 12 35 5 41 -10z m1987 7 c3 -5
4 -14 0 -20 -8 -13 -35 -1 -35 16 0 16 26 19 35 4z m-525 -10 c0 -5 7 -10 15
-10 8 0 15 -7 15 -17 0 -14 -2 -14 -21 3 -12 10 -24 18 -27 16 -4 -2 -8 1 -10
7 -2 6 3 11 12 11 9 0 16 -4 16 -10z m510 -54 c-16 -16 -12 -36 8 -36 14 0 14
2 3 9 -12 8 -12 12 -2 25 7 8 19 12 27 9 12 -4 12 -8 2 -22 -12 -14 -11 -14 4
-3 19 16 33 10 49 -20 8 -15 8 -19 0 -14 -6 4 -11 0 -11 -11 0 -14 -2 -15 -9
-5 -6 10 -10 8 -15 -10 -4 -17 -8 -20 -14 -10 -7 11 -29 17 -74 21 -5 1 -8 8
-8 16 0 11 -8 13 -30 9 -25 -6 -30 -3 -30 13 0 11 9 32 20 46 21 26 21 26 56
10 23 -11 31 -20 24 -27z m60 28 c0 -2 -7 -4 -15 -4 -8 0 -15 4 -15 10 0 5 7
7 15 4 8 -4 15 -8 15 -10z m-501 -30 c3 -16 1 -17 -13 -5 -19 16 -21 34 -3 29
6 -3 14 -13 16 -24z m-2089 -21 c0 -17 -6 -23 -22 -23 -18 0 -23 6 -23 24 0
18 5 23 22 22 17 -1 23 -7 23 -23z m2130 11 c0 -9 -5 -14 -12 -12 -18 6 -21
28 -4 28 9 0 16 -7 16 -16z m40 -20 c0 -14 -3 -14 -15 -4 -8 7 -15 14 -15 16
0 2 7 4 15 4 8 0 15 -7 15 -16z m38 -3 c3 -8 -1 -12 -9 -9 -7 2 -15 10 -17 17
-3 8 1 12 9 9 7 -2 15 -10 17 -17z m122 8 c0 -6 -7 -9 -15 -5 -8 3 -15 1 -15
-4 0 -6 -7 -10 -15 -10 -21 0 -19 18 3 23 31 8 42 7 42 -4z m-72 -17 c3 -9 -2
-13 -14 -10 -9 1 -19 9 -22 16 -3 9 2 13 14 10 9 -1 19 -9 22 -16z m-231 -16
c12 -12 -8 -36 -31 -36 -38 0 -56 10 -56 32 0 18 5 20 41 15 22 -3 43 -8 46
-11z m128 4 c3 -5 1 -10 -4 -10 -6 0 -11 5 -11 10 0 6 2 10 4 10 3 0 8 -4 11
-10z m199 1 c3 -5 -1 -12 -10 -15 -20 -8 -29 -1 -19 13 8 13 22 14 29 2z
m-174 -37 c41 -12 72 -15 129 -10 76 6 84 0 28 -21 -32 -12 -31 -12 11 -6 38
5 42 3 42 -15 0 -17 -8 -22 -37 -27 -60 -10 -63 -16 -7 -10 l52 5 6 -36 c4
-19 10 -42 12 -49 7 -17 -19 -31 -71 -40 -26 -4 -35 -3 -26 3 9 7 10 12 2 16
-6 4 -11 2 -11 -4 0 -7 -5 -10 -12 -8 -7 3 -20 38 -29 79 -19 81 -25 73 -9
-11 15 -79 32 -93 102 -86 l56 7 7 -41 c4 -22 11 -42 16 -46 5 -3 9 -16 9 -30
0 -19 -8 -28 -35 -40 -20 -8 -44 -23 -55 -34 -11 -11 -29 -20 -39 -20 -11 0
-26 -3 -34 -6 -10 -3 -18 2 -21 14 -4 11 -16 30 -27 43 -11 12 -18 28 -15 35
3 7 -6 20 -20 29 -14 9 -23 22 -22 30 2 8 -6 21 -17 29 -20 16 -20 16 5 37 21
17 22 19 3 10 -30 -15 -53 -4 -53 26 0 19 4 24 16 19 9 -3 -5 14 -30 39 -41
40 -46 49 -45 87 1 24 4 33 6 21 2 -13 9 -23 14 -23 5 0 8 3 7 8 -4 16 15 53
25 48 7 -3 37 -12 67 -22z m75 16 c3 -5 -3 -10 -14 -10 -12 0 -21 5 -21 10 0
6 6 10 14 10 8 0 18 -4 21 -10z m55 0 c0 -5 -9 -10 -20 -10 -11 0 -20 5 -20
10 0 6 9 10 20 10 11 0 20 -4 20 -10z m505 -215 c50 -54 101 -110 114 -123 14
-14 20 -23 14 -21 -11 4 -233 242 -292 313 -44 54 46 -39 164 -169z m-35 -50
c69 -76 174 -192 234 -257 60 -65 106 -121 103 -124 -2 -3 -14 7 -26 22 -12
15 -45 52 -74 84 -28 31 -92 101 -142 155 -49 55 -141 154 -202 221 -62 67
-113 126 -113 131 1 9 43 -35 220 -232z m200 79 c0 -8 -4 -12 -10 -9 -5 3 -10
10 -10 16 0 5 5 9 10 9 6 0 10 -7 10 -16z m-860 -74 c0 -10 9 -22 20 -25 11
-3 20 -12 20 -19 0 -8 7 -20 16 -27 9 -8 25 -33 35 -57 22 -51 23 -56 8 -47
-6 4 -29 9 -51 11 -55 5 -88 27 -81 54 4 13 11 19 20 16 8 -3 21 -6 29 -6 9 0
12 -4 9 -10 -3 -5 -1 -10 5 -10 21 0 4 24 -21 30 -22 5 -24 12 -27 64 -2 39 0
56 7 51 6 -3 11 -15 11 -25z m1022 -315 c33 -42 -88 86 -156 165 -21 25 -2 7
43 -40 45 -47 96 -103 113 -125z m-664 173 c20 -20 14 -35 -18 -48 -39 -16
-34 -23 8 -11 29 9 32 8 43 -26 13 -40 6 -50 -36 -55 -26 -3 -32 2 -52 42 -12
25 -22 41 -22 37 -1 -4 8 -27 19 -49 22 -47 20 -66 -3 -21 -20 38 -37 104 -31
115 3 5 12 4 20 -3 12 -10 13 -9 8 4 -3 10 1 17 13 20 31 8 39 7 51 -5z m-333
-39 c15 -15 -18 -10 -45 6 l-25 15 30 -6 c17 -4 34 -11 40 -15z m101 -19 c2 0
4 -9 4 -20 0 -14 -7 -20 -22 -21 l-23 0 23 -9 c21 -9 21 -12 9 -42 -7 -17 -19
-34 -26 -36 -8 -3 -11 0 -7 7 7 11 -10 15 -46 12 -27 -3 -30 17 -12 72 23 71
21 69 61 52 19 -8 37 -15 39 -15z m1212 12 c6 -18 -15 -14 -22 4 -4 10 -1 14
6 12 6 -2 14 -10 16 -16z m-1326 -20 c4 -4 3 -13 -1 -21 -14 -21 -61 -6 -61
20 0 18 4 20 28 14 15 -3 30 -10 34 -13z m228 9 c-24 -13 -80 -21 -80 -11 0 8
30 15 75 18 16 1 17 0 5 -7z m24 -37 c9 -33 1 -41 -46 -49 -37 -7 -38 -6 -38
22 0 25 5 32 33 41 46 14 44 15 51 -14z m1153 -6 c41 -39 44 -74 7 -88 -28
-11 -168 -13 -226 -4 -33 6 -38 10 -38 32 0 16 13 39 32 59 31 32 35 33 112
33 76 0 82 -1 113 -32z m-277 12 c0 -5 -2 -10 -4 -10 -3 0 -8 5 -11 10 -3 6
-1 10 4 10 6 0 11 -4 11 -10z m-1144 -37 c-6 -6 -66 19 -66 28 0 5 16 1 35 -8
19 -9 33 -18 31 -20z m-2 -28 c13 -14 38 -30 55 -36 22 -8 30 -16 27 -26 -3
-8 -6 -21 -6 -29 0 -20 -69 -18 -120 2 -38 16 -51 36 -30 49 6 3 10 11 10 17
0 5 -9 0 -20 -13 -21 -24 -21 -24 0 19 24 49 49 55 84 17z m286 6 c0 -5 -12
-12 -27 -15 -16 -4 -36 -9 -45 -12 -10 -3 -18 -1 -18 3 0 5 19 14 43 20 23 5
43 11 45 12 1 0 2 -3 2 -8z m119 -53 c7 -16 10 -35 7 -43 -7 -20 -54 -42 -114
-53 -57 -10 -60 -9 -72 42 -4 17 -11 39 -15 50 -7 16 -6 17 13 7 18 -9 25 -8
39 6 13 13 34 18 74 18 52 1 57 -1 68 -27z m826 -31 c15 -4 14 -5 -7 -6 -21
-1 -28 4 -28 17 0 11 3 13 8 6 4 -7 16 -14 27 -17z m195 8 c0 -9 -9 -15 -21
-15 -11 0 -27 7 -35 15 -14 13 -11 15 20 15 25 0 36 -4 36 -15z m-1488 -27
c23 -12 59 -25 80 -28 54 -7 43 -25 -14 -24 -51 2 -118 36 -118 60 0 18 2 18
52 -8z m1411 5 c-13 -2 -35 -2 -50 0 -16 2 -5 4 22 4 28 0 40 -2 28 -4z m182
-3 c3 -5 1 -10 -4 -10 -6 0 -11 5 -11 10 0 6 2 10 4 10 3 0 8 -4 11 -10z
m-1095 -35 c0 -20 -105 -65 -151 -65 -65 0 -49 26 24 40 34 6 73 20 87 30 26
19 40 18 40 -5z m710 15 c-20 -13 -33 -13 -25 0 3 6 14 10 23 10 15 0 15 -2 2
-10z m57 4 c-3 -3 -12 -4 -19 -1 -8 3 -5 6 6 6 11 1 17 -2 13 -5z m278 -3 c3
-5 0 -13 -6 -17 -6 -3 -17 -21 -25 -39 -13 -32 -16 -33 -87 -40 -40 -4 -84 -5
-97 -2 -16 3 -9 5 20 7 25 1 59 6 75 11 l30 8 -33 -3 c-18 -1 -35 1 -38 6 -3
4 16 8 43 8 47 1 48 1 23 16 l-25 15 30 -6 c25 -5 28 -4 17 7 -8 8 -47 15
-100 18 l-87 5 90 6 c154 9 164 9 170 0z m-377 -21 c23 -22 37 -61 29 -82 -3
-7 -6 -1 -6 13 -1 28 -32 62 -71 78 l-25 10 26 0 c14 1 35 -8 47 -19z m510 0
c17 -14 25 -33 28 -62 3 -41 3 -41 -4 -8 -11 48 -19 60 -56 76 -22 9 -26 13
-11 13 11 0 31 -8 43 -19z m-1716 -14 c-3 -14 2 -16 31 -11 25 5 38 2 50 -10
37 -36 2 -48 -56 -19 -47 24 -56 34 -50 50 7 20 29 11 25 -10z m1590 -8 c-19
-19 -14 -73 10 -104 20 -25 20 -27 3 -14 -30 23 -35 32 -35 71 0 31 14 59 29
59 3 0 0 -5 -7 -12z m-436 -7 c-3 -5 2 -8 12 -7 24 2 29 -44 6 -61 -26 -19
-52 -16 -65 8 -9 17 -8 23 2 30 8 5 10 9 5 9 -5 0 -3 7 4 15 13 16 45 21 36 6z
m532 -3 c5 -7 10 -25 10 -41 -1 -38 -41 -49 -71 -18 -19 19 -20 23 -7 31 8 5
11 10 6 10 -5 0 -3 7 4 15 15 18 44 19 58 3z m-1595 -48 c40 0 40 0 22 20 -22
24 -17 31 14 23 12 -3 20 -11 18 -17 -3 -8 4 -11 22 -8 27 4 61 -18 61 -38 0
-14 -67 -23 -123 -17 -50 6 -136 50 -144 73 -2 7 17 1 43 -12 26 -13 65 -24
87 -24z m457 30 c0 -5 -9 -10 -20 -10 -11 0 -20 5 -20 10 0 6 9 10 20 10 11 0
20 -4 20 -10z m88 -12 c7 -7 12 -22 12 -34 0 -20 -6 -21 -100 -27 -103 -5
-180 0 -180 13 0 4 29 10 65 12 37 3 80 14 102 26 43 24 84 27 101 10z m454
-70 c11 -10 16 -18 10 -18 -19 0 -52 52 -51 79 1 23 2 22 10 -9 6 -19 19 -43
31 -52z m-588 63 c6 -9 -52 -21 -99 -20 -24 1 -20 3 20 14 64 16 73 17 79 6z
m804 2 c-10 -2 -26 -2 -35 0 -10 3 -2 5 17 5 19 0 27 -2 18 -5z m-1328 -13 c8
-5 12 -11 10 -14 -3 -2 -14 2 -24 10 -22 15 -10 19 14 4z m1564 -21 c-6 -10
-257 -11 -271 -2 -6 5 53 8 132 8 79 0 141 -3 139 -6z m-1524 -9 c0 -5 -2 -10
-4 -10 -3 0 -8 5 -11 10 -3 6 -1 10 4 10 6 0 11 -4 11 -10z m40 -14 c0 -11
-19 -15 -25 -6 -3 5 1 10 9 10 9 0 16 -2 16 -4z m37 -12 c-3 -3 -12 -4 -19 -1
-8 3 -5 6 6 6 11 1 17 -2 13 -5z m43 -4 c0 -5 -4 -10 -9 -10 -6 0 -13 5 -16
10 -3 6 1 10 9 10 9 0 16 -4 16 -10z m45 0 c-3 -5 -12 -7 -20 -3 -21 7 -19 13
6 13 11 0 18 -4 14 -10z m42 4 c-3 -3 -12 -4 -19 -1 -8 3 -5 6 6 6 11 1 17 -2
13 -5z m198 -4 c3 -5 -1 -10 -10 -10 -9 0 -13 5 -10 10 3 6 8 10 10 10 2 0 7
-4 10 -10z m150 0 c3 -5 -1 -10 -9 -10 -9 0 -16 5 -16 10 0 6 4 10 9 10 6 0
13 -4 16 -10z m35 0 c0 -5 -4 -10 -10 -10 -5 0 -10 5 -10 10 0 6 5 10 10 10 6
0 10 -4 10 -10z m40 0 c0 -5 -4 -10 -10 -10 -5 0 -10 5 -10 10 0 6 5 10 10 10
6 0 10 -4 10 -10z m-162 -7 c-10 -2 -26 -2 -35 0 -10 3 -2 5 17 5 19 0 27 -2
18 -5z m49 1 c-3 -3 -12 -4 -19 -1 -8 3 -5 6 6 6 11 1 17 -2 13 -5z m1303 -12
c42 -28 80 -65 80 -76 0 -6 -7 -3 -14 7 -17 22 -21 14 -21 -37 0 -49 21 -58
34 -14 l9 33 1 -35 c1 -20 -4 -41 -10 -47 -8 -8 -8 -17 0 -32 22 -40 -40 -521
-72 -560 -7 -8 -12 -26 -13 -42 -3 -48 -168 -384 -228 -463 -19 -25 -37 -55
-41 -66 -3 -11 -10 -20 -14 -20 -5 0 -14 -13 -21 -29 -6 -16 -18 -32 -26 -35
-8 -3 -14 -12 -14 -20 0 -8 -8 -21 -18 -28 -10 -7 -27 -27 -39 -43 -31 -45
-189 -205 -202 -205 -6 0 -19 -8 -29 -17 -25 -26 -104 -83 -114 -83 -4 0 -8 8
-8 18 -1 10 -6 6 -14 -13 -19 -41 -52 -74 -92 -91 -17 -7 -34 -18 -36 -24 -2
-6 -13 -12 -26 -13 -12 0 -22 -5 -22 -9 0 -4 -6 -8 -14 -8 -8 0 -21 -6 -28
-13 -29 -29 -153 -97 -206 -112 -31 -9 -67 -21 -80 -26 -31 -12 -51 -11 -32 1
10 7 11 10 2 10 -7 0 -15 -7 -18 -15 -4 -8 -13 -15 -22 -15 -8 0 -23 -6 -31
-14 -18 -15 -86 -38 -181 -60 -146 -34 -488 -68 -476 -47 8 12 -73 21 -149 17
-159 -9 -500 79 -695 181 -117 61 -331 194 -371 230 -14 13 -29 23 -34 23 -14
0 -88 65 -191 168 -130 130 -167 173 -168 196 -1 11 -13 26 -28 35 -40 24 -98
103 -187 257 -76 132 -88 162 -131 329 -4 17 -17 48 -28 70 -27 54 -68 247
-80 375 -10 103 -8 154 9 175 4 6 11 30 15 53 4 23 10 42 15 42 5 0 9 7 9 15
0 8 -4 15 -9 15 -16 0 -30 -25 -34 -65 -4 -34 -4 -32 -3 9 1 45 4 51 34 67 25
15 32 16 32 5 0 -7 7 -19 16 -26 13 -11 16 -10 21 9 10 38 28 17 27 -32 0 -39
2 -47 18 -47 10 0 21 -7 24 -15 4 -8 15 -15 25 -15 16 0 19 8 19 58 0 32 -5
63 -12 70 -9 9 -8 12 4 12 9 0 24 -10 32 -21 16 -23 52 -20 43 4 -3 7 4 12 18
12 13 0 20 -4 17 -10 -15 -24 -38 -45 -49 -45 -7 0 -13 -8 -12 -17 0 -11 3
-13 6 -5 7 19 23 14 23 -8 0 -13 -5 -18 -15 -14 -8 4 -15 1 -15 -4 0 -6 -5
-23 -12 -39 -7 -15 -13 -32 -13 -38 -5 -27 -18 -46 -25 -35 -5 8 -10 1 -15
-19 -7 -34 -40 -60 -48 -38 -3 6 -5 3 -5 -8 0 -11 -3 -27 -5 -35 -20 -65 -18
-62 -33 -43 -12 17 -13 16 -14 -5 0 -31 17 -62 35 -62 20 0 24 11 30 70 5 57
12 73 26 65 5 -4 9 -1 9 4 0 6 5 11 10 11 6 0 10 -9 10 -20 0 -14 7 -20 23
-20 21 -1 21 -1 3 -15 -10 -8 -22 -13 -25 -11 -4 3 -5 -14 -3 -36 3 -22 7 -36
11 -31 3 6 16 16 29 22 14 8 21 18 18 27 -3 8 -1 14 4 14 16 0 23 -50 11 -73
-13 -26 -16 -75 -6 -99 4 -12 3 -18 -5 -18 -12 0 -11 -15 6 -97 7 -38 24 -44
24 -10 1 14 11 0 30 -40 29 -63 46 -78 52 -46 2 11 13 18 28 18 20 0 24 4 22
24 -6 43 6 70 29 64 19 -5 20 -4 10 15 -10 18 -9 21 4 16 8 -4 15 -14 16 -23
0 -11 2 -12 6 -3 3 7 -3 22 -13 33 -22 25 -28 79 -8 79 15 0 11 57 -5 73 -6 6
-11 23 -11 38 0 15 -6 29 -14 32 -14 6 -66 -13 -66 -23 0 -9 61 -45 72 -42 6
2 8 -4 5 -13 -4 -9 -1 -15 8 -15 9 0 12 -6 9 -15 -4 -8 -13 -15 -21 -15 -10 0
-12 -6 -8 -20 10 -31 -12 -23 -27 10 -11 25 -14 27 -20 12 -5 -14 -7 -13 -7 6
-1 14 -5 21 -12 16 -7 -4 -9 0 -5 13 4 12 1 25 -8 32 -22 19 -36 4 -29 -30 5
-26 3 -30 -12 -28 -23 5 -32 29 -11 29 12 0 13 6 6 28 -17 55 -21 84 -10 77 5
-3 10 -1 10 4 0 6 -4 11 -8 11 -5 0 -9 7 -9 15 0 8 7 14 16 13 9 -2 20 7 26
20 6 13 15 20 24 17 10 -4 9 1 -4 15 -14 15 -15 20 -4 20 11 0 12 2 1 9 -11 7
-11 9 1 14 9 3 18 -1 21 -9 3 -8 11 -14 18 -14 9 0 8 3 -2 10 -9 6 -10 10 -3
10 7 0 10 10 7 28 -4 18 -2 24 5 17 5 -5 11 -35 13 -65 3 -51 4 -53 15 -30
l12 25 0 -23 c1 -13 5 -20 11 -17 6 3 7 -1 4 -10 -4 -8 -2 -21 4 -28 6 -6 12
-28 14 -47 2 -26 10 -38 33 -50 16 -8 35 -22 42 -30 11 -13 12 -13 7 2 -4 13
-1 15 15 11 31 -8 27 21 -9 59 -20 21 -27 34 -19 39 13 8 -23 49 -44 49 -7 0
-8 3 -2 8 13 9 13 45 -1 63 -9 13 -10 20 -5 47 1 4 6 0 11 -8 8 -12 10 -10 10
10 0 18 3 21 9 11 5 -8 16 -11 30 -6 34 11 18 30 -25 30 -32 0 -40 -4 -42 -22
-3 -23 -32 -54 -32 -34 0 20 -19 11 -23 -11 -3 -13 -3 -3 -2 21 2 28 9 49 20
57 9 7 14 17 11 23 -4 5 -2 12 4 16 5 3 10 1 10 -6 0 -7 3 -10 6 -6 3 3 0 20
-7 36 -14 32 -49 43 -49 16 0 -18 -1 -18 -34 -2 -14 8 -23 17 -19 20 3 4 0 7
-8 8 -8 1 0 4 18 9 17 4 60 4 95 0 34 -4 53 -8 42 -9 -34 -2 -47 -24 -24 -43
13 -12 20 -13 24 -5 3 8 8 6 16 -5 10 -17 12 -17 32 1 11 11 18 25 16 33 -5
14 81 57 115 58 9 0 26 -15 37 -32 19 -31 21 -32 26 -12 7 25 38 22 66 -7 17
-17 58 -16 58 3 0 5 -4 6 -10 3 -5 -3 -10 -1 -10 4 0 16 26 13 40 -4 7 -8 19
-15 26 -15 8 0 14 -4 14 -9 0 -5 9 -7 21 -4 12 3 18 11 15 19 -9 22 66 40 112
26 20 -7 51 -13 67 -14 18 -2 30 -9 30 -17 0 -21 20 -24 35 -6 12 14 11 18 -1
26 -9 7 12 8 66 3 44 -4 95 -6 113 -5 24 1 41 -6 65 -29 17 -17 42 -33 55 -36
12 -4 23 -9 23 -13 1 -3 3 -16 4 -27 1 -12 5 -26 9 -32 3 -6 2 -13 -4 -17 -6
-4 -8 -11 -5 -16 4 -5 1 -9 -5 -9 -7 0 -9 -8 -5 -21 5 -14 3 -19 -3 -15 -6 3
-13 2 -17 -3 -4 -7 -15 -7 -31 -1 -17 7 -31 6 -43 -2 -13 -8 -23 -8 -37 1 -17
11 -16 12 9 6 34 -7 36 11 2 19 -14 4 -25 11 -25 17 0 6 7 8 17 5 10 -4 14 -4
11 0 -4 4 -3 15 3 26 6 11 13 17 16 14 7 -7 33 13 33 25 0 5 -9 9 -20 9 -12 0
-24 10 -30 23 -7 17 -9 18 -9 5 -1 -10 -8 -18 -16 -18 -8 0 -15 -5 -15 -11 0
-6 9 -8 23 -4 22 6 22 6 -2 -13 -19 -15 -31 -18 -54 -11 -25 7 -27 6 -16 -7
10 -12 9 -13 -5 -8 -9 3 -16 1 -16 -5 0 -6 -9 -11 -20 -11 -16 0 -20 7 -20 34
0 43 13 52 42 32 29 -20 28 -20 61 8 32 28 34 36 8 36 -11 0 -22 6 -24 13 -4
7 -8 4 -12 -9 -5 -16 -13 -20 -31 -16 -13 2 -21 8 -18 13 3 5 2 9 -3 10 -4 0
-17 2 -29 4 -11 3 -30 -4 -41 -15 -15 -14 -23 -16 -32 -7 -8 8 -11 8 -11 -1 0
-6 -7 -9 -15 -6 -9 4 -15 0 -15 -10 0 -9 -5 -16 -12 -16 -6 0 -9 -3 -6 -6 4
-3 15 -1 26 5 16 8 21 7 26 -4 3 -9 0 -15 -9 -15 -8 0 -18 -6 -22 -13 -4 -7
-21 -21 -36 -30 -28 -18 -28 -18 -18 1 10 18 7 20 -20 18 -22 -1 -35 5 -43 19
-23 40 -59 49 -54 13 5 -34 -29 -36 -42 -4 -5 14 -15 26 -22 27 -7 0 -22 2
-33 4 -25 5 -55 -49 -37 -67 6 -6 8 -16 5 -23 -2 -8 1 -24 7 -36 11 -19 10
-24 -4 -35 -16 -11 -15 -14 9 -40 16 -17 22 -31 16 -37 -14 -14 -41 -1 -41 20
-1 23 -20 47 -43 56 -14 5 -21 0 -29 -23 -5 -17 -16 -30 -24 -30 -22 0 -16
-43 11 -80 30 -41 31 -44 5 -37 -27 7 -26 -16 1 -41 19 -18 19 -21 4 -36 -19
-19 -20 -18 28 -21 39 -2 55 -10 44 -21 -4 -4 -13 -1 -22 6 -11 9 -18 10 -29
1 -20 -17 -60 -4 -71 22 -6 12 -18 23 -28 25 -15 3 -18 -3 -18 -40 -1 -91 -2
-107 -10 -102 -5 3 -9 2 -9 -3 0 -4 -28 -8 -62 -8 -63 0 -92 -14 -82 -40 3 -7
12 -11 19 -9 7 3 24 -2 37 -10 26 -17 40 -13 31 10 -3 8 0 14 6 14 8 0 10 -11
6 -33 -5 -27 1 -47 31 -103 20 -38 40 -71 43 -74 11 -9 12 -32 1 -25 -5 3 -10
0 -10 -7 0 -12 19 -31 65 -63 18 -13 17 -13 -14 -5 -19 5 -38 15 -43 22 -4 7
-8 9 -8 5 0 -10 -15 5 -49 48 -13 17 -21 22 -18 13 10 -29 -20 -9 -36 23 -14
29 -15 30 -20 8 -3 -12 -1 -31 4 -42 6 -11 9 -32 7 -48 -4 -27 -4 -28 12 -11
10 9 15 23 12 29 -2 7 0 13 6 13 6 0 15 -13 21 -30 5 -16 12 -30 15 -30 3 0 1
12 -4 26 -14 37 -13 37 20 2 17 -17 30 -27 30 -23 0 4 7 2 15 -5 19 -16 75
-23 75 -10 0 22 30 8 79 -36 28 -25 51 -50 51 -56 0 -5 -5 -6 -11 -3 -6 4 -5
-1 2 -13 12 -19 59 -28 59 -11 0 5 -5 9 -12 9 -6 0 -9 2 -6 5 2 3 18 -1 34 -9
42 -21 89 -31 80 -18 -3 6 -1 12 4 14 6 2 1 14 -12 28 -13 14 -22 28 -20 33 1
5 -2 6 -7 3 -5 -4 -12 0 -14 6 -4 10 -8 10 -15 0 -7 -11 -11 -8 -16 12 -4 17
-13 26 -26 26 -22 0 -23 -3 -14 -37 4 -14 12 -20 22 -17 13 4 12 3 -2 -6 -23
-15 -42 1 -55 46 -10 36 10 74 31 57 7 -6 26 -13 42 -17 24 -6 27 -4 22 9 -3
9 -2 13 4 10 6 -3 10 1 10 9 0 9 6 16 13 16 6 0 4 5 -6 11 -9 5 -21 8 -26 4
-5 -3 -12 4 -16 15 -3 11 -15 20 -25 20 -10 0 -27 12 -37 26 -13 17 -31 28
-53 30 -27 3 -31 1 -22 -8 7 -7 12 -17 12 -22 0 -6 -11 2 -25 17 -42 44 -62
33 -39 -21 8 -19 12 -38 9 -40 -10 -11 -35 -10 -42 0 -4 7 -1 8 8 3 12 -8 12
-6 0 8 -14 18 -15 24 -26 110 l-6 48 20 -20 c12 -12 28 -21 36 -21 8 0 15 -3
15 -7 0 -5 22 -9 49 -9 41 -2 50 1 54 17 3 11 0 19 -8 19 -7 0 -18 7 -25 16
-11 12 -11 15 1 12 7 -2 19 -8 26 -15 7 -6 18 -13 25 -15 11 -4 11 -8 0 -20
-18 -23 6 -92 33 -96 45 -5 49 16 19 93 -7 20 -7 20 14 1 12 -11 22 -25 22
-32 0 -7 10 -14 22 -16 12 -2 28 -14 35 -28 7 -14 13 -19 13 -10 1 8 6 2 13
-13 15 -36 44 -29 59 13 6 15 8 12 23 -36 3 -8 10 -12 16 -8 8 4 9 -1 4 -16
-5 -17 -4 -21 6 -15 9 6 11 4 6 -7 -3 -9 0 -21 6 -27 12 -12 7 -14 -17 -5 -9
3 -13 10 -10 15 6 10 -7 12 -30 3 -9 -3 -13 -10 -10 -15 3 -5 -5 -9 -18 -9
-13 0 -18 -3 -12 -8 6 -4 14 -17 18 -29 4 -14 15 -23 27 -23 23 0 38 -29 20
-39 -17 -11 6 -68 30 -74 23 -6 24 1 4 27 -19 25 -19 52 -1 59 8 3 18 -5 25
-19 6 -13 16 -24 22 -24 6 0 9 -9 6 -20 -6 -23 -3 -25 43 -34 23 -5 30 -4 21
2 -11 8 -9 11 9 17 18 6 20 9 9 16 -11 7 -9 10 9 15 29 8 28 28 -3 42 -14 6
-25 19 -25 27 0 21 28 31 43 15 9 -10 9 -11 0 -6 -6 3 -14 2 -17 -3 -6 -10 33
-20 52 -13 7 2 9 9 5 15 -10 16 -13 37 -5 36 20 -3 24 2 9 14 -20 15 -27 58
-9 64 6 3 12 -2 12 -11 0 -9 5 -16 11 -16 5 0 8 4 5 9 -9 14 44 23 60 10 11
-9 12 -15 3 -26 -9 -11 -8 -17 7 -28 10 -8 23 -15 28 -15 10 0 -45 -50 -56
-50 -7 0 -23 21 -23 32 0 3 -3 10 -7 14 -4 3 -6 -3 -3 -14 2 -11 -3 -23 -11
-26 -8 -3 -14 -13 -14 -21 0 -10 -5 -14 -12 -9 -7 3 -2 -4 12 -17 24 -22 31
-67 9 -54 -5 4 -9 1 -9 -4 0 -6 -7 -11 -15 -11 -18 0 -20 -39 -2 -42 6 -1 30
-2 52 -4 148 -9 149 -9 157 -40 4 -16 6 -34 4 -41 -3 -6 15 -21 40 -32 51 -24
61 -26 45 -8 -8 10 -7 19 5 33 8 10 13 14 10 8 -3 -7 5 -11 21 -11 24 -1 25 1
10 12 -18 13 -24 31 -7 20 6 -3 10 -1 10 6 0 8 5 7 17 -2 13 -11 15 -11 9 -1
-5 9 -1 15 13 19 12 3 18 10 14 17 -3 6 0 6 8 -1 14 -14 33 -18 26 -5 -3 4 5
14 17 23 19 15 24 15 41 3 19 -14 11 -19 -22 -15 -7 1 -11 -11 -11 -29 1 -16
6 -30 11 -30 29 0 -15 -19 -50 -22 -7 -1 -13 -5 -13 -10 0 -4 -10 -8 -22 -8
l-22 0 24 -17 c22 -15 54 -24 90 -25 37 -1 70 7 69 17 -3 25 3 33 26 39 14 4
25 11 25 16 0 5 7 7 15 4 8 -4 15 -1 15 6 0 6 4 8 10 5 15 -9 47 12 53 35 3
14 0 20 -10 20 -11 0 -14 8 -11 30 3 22 0 30 -10 30 -14 0 -13 13 3 53 8 18
-11 22 -80 18 l-30 -1 28 15 c34 19 35 48 2 63 -14 6 -24 17 -23 24 2 7 -3 12
-9 10 -7 -1 -13 2 -13 8 0 12 13 13 26 1 5 -4 21 -11 35 -15 32 -7 49 8 49 43
0 16 38 19 59 4 21 -14 61 -10 61 6 0 12 64 8 72 -4 5 -6 8 -3 8 7 0 11 5 15
15 12 9 -4 15 0 15 10 0 20 7 20 25 2 18 -18 87 -15 110 4 13 11 18 11 30 -1
22 -22 2 -43 -39 -42 -39 1 -49 -11 -16 -20 11 -3 20 -12 20 -21 0 -9 4 -16 9
-16 5 0 8 -15 6 -32 -3 -38 10 -58 36 -58 20 0 26 -15 10 -24 -5 -3 -6 -20 -2
-38 6 -30 10 -33 39 -30 18 2 32 -1 32 -6 0 -5 9 -12 20 -15 13 -3 20 0 20 9
0 16 36 19 45 4 11 -18 25 -11 22 12 -2 20 3 22 54 22 30 1 74 10 96 20 39 17
40 18 33 57 -4 22 -4 42 1 45 11 7 -1 34 -15 34 -7 0 -21 7 -32 16 -18 15 -18
15 3 5 24 -12 61 -2 81 22 7 8 21 13 31 10 24 -6 40 17 34 49 -4 20 -13 28
-41 35 -42 10 -85 6 -77 -7 3 -5 12 -7 20 -3 21 7 75 -16 75 -33 0 -8 -8 -14
-17 -14 -13 0 -15 3 -5 8 17 12 -31 37 -54 28 -9 -3 -22 -2 -29 4 -9 8 -15 8
-20 0 -3 -5 -15 -10 -25 -10 -10 0 -20 -6 -23 -12 -2 -7 -8 -9 -13 -5 -5 4 -2
12 5 16 7 5 10 14 7 20 -9 14 15 39 32 33 23 -7 12 18 -13 30 -14 6 -25 17
-25 24 0 16 -39 44 -62 44 -10 0 -26 -9 -35 -20 -19 -22 -39 -27 -27 -7 5 7 0
6 -11 -3 -17 -14 -18 -13 -12 3 7 19 -8 24 -17 5 -3 -10 -9 -8 -19 4 -8 10
-17 15 -20 11 -4 -3 -7 1 -7 10 0 22 -30 26 -67 8 -50 -24 -41 -61 18 -76 21
-5 30 -2 43 16 13 19 18 21 28 10 10 -11 10 -12 1 -7 -8 4 -13 1 -13 -8 0 -9
-7 -16 -16 -16 -8 0 -13 -4 -10 -9 3 -5 -1 -12 -10 -15 -11 -4 -14 -13 -10
-30 3 -14 2 -28 -4 -31 -5 -3 -10 2 -10 13 0 10 -11 29 -25 42 -13 12 -22 27
-19 31 3 5 -7 4 -21 -1 -26 -10 -45 -6 -45 9 0 5 11 7 25 6 14 -2 25 1 25 6 0
5 -10 8 -22 6 -13 -1 -22 3 -21 8 1 6 -8 11 -20 12 -12 0 -16 -1 -9 -4 6 -3
12 -8 12 -12 0 -9 -30 -11 -30 -2 -1 3 -2 27 -4 53 -4 57 -11 68 -36 61 -29
-8 -50 14 -50 53 0 27 -4 32 -20 31 -11 -1 -20 -8 -20 -18 0 -11 -12 -18 -39
-23 -31 -5 -40 -11 -43 -29 -2 -18 -9 -22 -42 -22 -42 0 -56 -16 -36 -40 16
-20 7 -19 -34 3 l-34 18 22 18 21 17 -29 26 -30 25 31 -6 c35 -8 53 7 27 22
-13 7 -14 11 -4 17 9 6 4 12 -16 21 l-29 14 33 -6 c26 -5 32 -2 32 13 0 10 -9
24 -20 31 -21 13 -27 32 -10 32 6 0 10 -8 10 -17 0 -13 3 -14 12 -5 15 15 -9
45 -29 38 -8 -3 -25 1 -39 10 -19 13 -27 14 -38 5 -10 -8 -16 -9 -21 -1 -4 6
6 13 24 16 27 6 29 8 18 28 -27 47 -77 86 -112 86 -15 0 -26 -48 -14 -56 5 -3
4 -10 -1 -17 -6 -7 -17 -21 -25 -32 -9 -12 -13 -14 -10 -4 6 17 -19 43 -52 53
-28 9 -39 -10 -19 -33 9 -10 16 -23 16 -29 0 -7 5 -12 10 -12 6 0 10 -4 10
-10 0 -8 -28 -8 -50 0 -3 1 -10 3 -17 4 -6 0 -25 16 -41 33 -16 18 -31 31 -34
28 -3 -3 -8 6 -10 20 -4 17 -2 23 6 16 17 -13 45 -9 39 6 -3 7 -1 13 5 13 6 0
19 3 29 6 15 5 16 4 3 -6 -21 -16 28 -2 54 16 21 14 24 13 -47 32 -36 10 -38
9 -32 -11 5 -19 5 -20 -5 -4 -6 9 -9 21 -6 26 3 5 -2 12 -11 15 -12 5 -14 9
-5 18 19 19 14 36 -14 51 -23 12 -24 15 -10 26 14 11 16 11 16 -4 0 -10 3 -15
7 -12 3 4 12 -1 19 -11 7 -9 16 -14 20 -10 4 4 2 14 -4 21 -7 8 -9 17 -5 20 3
4 1 7 -6 7 -7 0 -9 5 -6 10 3 6 1 10 -5 10 -6 0 -8 4 -5 10 8 13 -34 57 -67
69 -16 6 -28 17 -28 26 0 22 47 19 98 -5 22 -11 58 -20 80 -20 21 0 43 -5 50
-12 9 -9 12 -8 12 7 0 17 1 17 13 3 14 -20 94 -38 83 -19 -5 7 1 11 16 12 l23
0 -24 10 c-13 5 -26 7 -29 4 -3 -3 -16 5 -29 17 -26 25 -32 14 -6 -14 14 -16
14 -18 1 -18 -9 0 -19 7 -22 16 -3 9 -15 14 -28 12 -11 -2 -23 3 -25 10 -3 7
4 12 19 12 21 1 22 2 6 14 -31 23 -20 25 22 5 23 -11 43 -25 46 -32 7 -18 74
-21 74 -3 0 8 -5 18 -10 21 -13 8 13 35 35 35 9 0 36 -12 61 -26 43 -25 46
-26 78 -10 40 19 47 20 44 4 -3 -13 39 -26 65 -20 16 4 14 7 -10 24 l-28 19
40 -7 c22 -4 42 -11 43 -15 2 -5 10 -9 18 -9 9 0 13 4 10 9 -3 5 31 9 77 9 45
-1 105 3 132 7 36 5 55 3 69 -7 16 -13 17 -16 3 -30 -17 -17 -12 -27 21 -46
30 -17 36 -11 37 35 0 20 6 38 13 41 13 4 17 -24 3 -30 -12 -4 -1 -68 12 -68
6 0 21 -10 34 -21 l22 -22 40 34 c42 36 53 56 22 39 -25 -13 -68 -13 -76 -1
-9 15 28 31 46 20 11 -7 8 -9 -11 -10 -20 -1 -21 -2 -5 -6 12 -2 36 3 55 11
19 8 29 15 23 16 -24 0 -13 16 20 28 41 15 60 15 52 2 -9 -15 10 -12 49 7 29
13 40 14 61 5 13 -6 31 -9 39 -6 9 3 29 -1 46 -9 16 -9 30 -11 30 -6 0 20 16
7 27 -21 15 -40 62 -43 80 -5 8 19 8 27 0 32 -7 5 15 11 48 14 33 4 69 9 80
13 11 3 7 0 -10 -8 l-30 -15 35 -2 c19 -1 28 -3 20 -5 -9 -3 -21 -18 -27 -35
-7 -17 -17 -28 -22 -24 -6 3 -11 -1 -11 -9 0 -9 -7 -16 -16 -16 -14 0 -14 2 0
22 26 37 18 42 -15 9 l-31 -31 24 -19 c20 -17 25 -17 38 -6 9 8 25 12 38 8 16
-4 22 -1 22 11 0 10 4 15 9 12 5 -3 15 2 22 11 11 13 11 17 2 20 -16 6 -17 39
-3 48 8 5 7 12 -2 23 -11 14 -10 15 7 8 11 -4 33 -13 49 -19 26 -9 28 -11 11
-17 -19 -7 -19 -7 2 -19 19 -10 24 -8 35 8 11 18 13 18 23 4 15 -20 47 -10 39
12 -3 8 -12 15 -20 15 -8 0 -14 5 -14 11 0 7 7 8 18 4 9 -4 37 -11 62 -15 62
-10 80 -19 80 -40 0 -15 -6 -18 -35 -14 -20 2 -35 0 -35 -6 0 -10 20 -14 50
-11 12 1 12 0 2 -7 -13 -9 -6 -42 9 -42 5 0 17 17 26 38 10 20 18 39 19 40 2
2 18 -2 38 -9 42 -15 53 -8 38 25 -10 22 -8 24 31 29 48 6 152 2 215 -8 64
-11 140 26 80 38 -20 4 -20 4 -3 6 11 0 31 -7 45 -17z m-2400 -32 c24 -15 7
-19 -20 -5 -15 8 -19 14 -10 14 8 1 22 -3 30 -9z m1010 0 c8 -5 12 -11 10 -14
-3 -2 -14 2 -24 10 -22 15 -10 19 14 4z m-1223 -6 c-3 -3 -12 -4 -19 -1 -8 3
-5 6 6 6 11 1 17 -2 13 -5z m-1127 -38 c0 -7 -7 -19 -15 -26 -12 -10 -15 -9
-15 7 0 11 3 23 7 26 11 12 23 8 23 -7z m54 -48 c-10 -16 -22 -7 -17 13 4 15
8 17 14 8 4 -7 5 -17 3 -21z m814 -32 c-7 -8 -15 -12 -17 -11 -5 6 10 25 20
25 5 0 4 -6 -3 -14z m-918 -22 c0 -8 -5 -12 -10 -9 -6 4 -8 11 -5 16 9 14 15
11 15 -7z m70 -34 c0 -5 -8 -10 -17 -10 -15 0 -16 2 -3 10 19 12 20 12 20 0z
m944 -29 c-2 -3 -12 3 -22 13 -16 17 -16 18 5 5 12 -7 20 -15 17 -18z m-1039
-51 c-3 -6 -10 -10 -16 -10 -10 0 -12 33 -2 44 9 9 26 -22 18 -34z m1215 -1
c0 -5 -7 -9 -15 -9 -15 0 -20 12 -9 23 8 8 24 -1 24 -14z m-75 1 c3 -5 2 -10
-4 -10 -5 0 -13 5 -16 10 -3 6 -2 10 4 10 5 0 13 -4 16 -10z m-24 -10 c21 -12
26 -40 7 -40 -6 0 -4 -7 5 -18 10 -10 17 -22 17 -26 0 -23 44 -60 75 -63 l34
-4 -3 43 c-3 37 -2 40 9 24 8 -10 11 -25 8 -33 -4 -9 2 -16 16 -20 14 -4 20
-11 17 -20 -3 -8 -6 -22 -7 -31 0 -11 -2 -12 -6 -4 -11 27 -25 11 -19 -22 7
-34 6 -34 -26 -29 -27 4 -31 2 -20 -8 14 -15 16 -49 2 -49 -5 0 -13 -12 -16
-26 -4 -15 -12 -23 -19 -20 -19 7 -26 -44 -10 -76 11 -22 11 -26 -1 -21 -8 3
-14 12 -14 20 0 8 -5 11 -10 8 -6 -4 -8 -10 -5 -15 3 -4 -2 -14 -11 -21 -13
-10 -17 -10 -24 1 -7 12 -11 12 -25 0 -15 -13 -17 -11 -13 10 2 20 9 25 33 25
27 0 30 3 31 34 0 26 6 36 22 42 28 11 29 55 4 101 -10 18 -18 50 -17 71 1 20
-2 37 -7 37 -4 0 -8 7 -8 15 0 8 -9 19 -20 25 -11 6 -18 15 -15 21 4 5 -1 12
-9 15 -22 8 -20 34 2 34 15 1 15 2 -2 15 -23 17 -4 20 25 5z m89 -50 c0 -5 -4
-10 -10 -10 -5 0 -10 5 -10 10 0 6 5 10 10 10 6 0 10 -4 10 -10z m-940 -70 c0
-5 -4 -10 -10 -10 -5 0 -10 5 -10 10 0 6 5 10 10 10 6 0 10 -4 10 -10z m1260
-62 c0 -19 -2 -20 -10 -8 -13 19 -13 30 0 30 6 0 10 -10 10 -22z m-510 -33 c0
-20 -5 -25 -23 -25 -29 0 -59 30 -48 48 5 9 11 5 19 -13 6 -14 18 -25 27 -25
22 0 18 31 -5 37 -11 3 -17 9 -14 14 10 17 44 -11 44 -36z m660 -7 c0 -4 -7
-5 -15 -2 -8 4 -12 10 -9 15 3 5 -3 9 -13 9 -15 0 -16 2 -3 10 11 7 19 5 28
-7 6 -9 12 -20 12 -25z m-240 9 c0 -8 -7 -14 -15 -14 -8 0 -15 6 -15 14 0 7 7
13 15 13 8 0 15 -6 15 -13z m255 -37 c3 -5 1 -10 -4 -10 -6 0 -11 5 -11 10 0
6 2 10 4 10 3 0 8 -4 11 -10z m-615 -10 c0 -5 -4 -10 -10 -10 -5 0 -10 5 -10
10 0 6 5 10 10 10 6 0 10 -4 10 -10z m607 -46 c-3 -3 -12 -4 -19 -1 -8 3 -5 6
6 6 11 1 17 -2 13 -5z m-967 -29 c7 -8 8 -15 2 -15 -5 0 -15 7 -22 15 -7 8 -8
15 -2 15 5 0 15 -7 22 -15z m880 -10 c0 -20 -5 -25 -22 -24 -19 1 -20 2 -5 6
13 3 17 11 14 24 -3 10 -1 19 4 19 5 0 9 -11 9 -25z m-1015 5 c3 -6 -1 -7 -9
-4 -9 3 -16 1 -16 -5 0 -6 -7 -8 -15 -5 -10 4 -15 0 -15 -15 0 -14 -5 -19 -15
-15 -19 8 2 42 30 47 11 2 23 5 27 6 4 0 10 -3 13 -9z m762 -22 c-3 -8 -6 -5
-6 6 -1 11 2 17 5 13 3 -3 4 -12 1 -19z m-637 -8 c0 -5 -2 -10 -4 -10 -3 0 -8
5 -11 10 -3 6 -1 10 4 10 6 0 11 -4 11 -10z m975 -18 c-6 -7 -34 11 -29 19 3
5 11 3 19 -4 7 -6 12 -13 10 -15z m-768 -12 c14 -11 22 -20 18 -20 -5 0 0 -9
10 -20 32 -35 7 -21 -30 17 -20 20 -33 29 -29 20 3 -10 1 -17 -5 -17 -6 0 -11
2 -11 4 0 2 -3 11 -6 20 -9 23 22 20 53 -4z m97 -5 c-4 -8 -10 -13 -15 -10 -4
3 -6 12 -3 20 4 8 10 13 15 10 4 -3 6 -12 3 -20z m40 17 c3 -5 -1 -9 -9 -9 -8
0 -12 4 -9 9 3 4 7 8 9 8 2 0 6 -4 9 -8z m173 -29 c12 -18 12 -21 -1 -26 -10
-4 -13 -1 -9 9 3 8 -3 22 -13 30 -11 9 -13 14 -5 12 8 -2 20 -13 28 -25z
m-682 7 c3 -5 2 -10 -4 -10 -5 0 -13 5 -16 10 -3 6 -2 10 4 10 5 0 13 -4 16
-10z m-158 -52 c2 -12 9 -26 16 -30 7 -5 0 -6 -17 -4 -28 5 -46 20 -46 40 0 4
7 6 15 3 8 -4 17 -2 20 3 4 6 1 10 -4 10 -6 0 -11 5 -11 12 0 20 23 -9 27 -34z
m489 12 c0 -11 -4 -20 -8 -20 -10 0 -11 24 -1 33 9 9 9 10 9 -13z m828 -15 c3
-9 0 -12 -9 -9 -7 3 -16 12 -19 19 -3 9 0 12 9 9 7 -3 16 -12 19 -19z m-1139
-5 c3 -5 2 -10 -4 -10 -5 0 -13 5 -16 10 -3 6 -2 10 4 10 5 0 13 -4 16 -10z
m415 -4 c0 -2 -8 -10 -17 -17 -16 -13 -17 -12 -4 4 13 16 21 21 21 13z m796
-7 c3 -6 2 -15 -4 -21 -6 -6 -11 -2 -15 11 -5 22 7 29 19 10z m-846 -9 c0 -5
-4 -10 -10 -10 -5 0 -10 5 -10 10 0 6 5 10 10 10 6 0 10 -4 10 -10z m776 -32
c-9 -12 -16 -17 -16 -10 0 14 23 42 29 37 1 -2 -4 -14 -13 -27z m-586 -8 c-14
-11 -19 -20 -12 -20 6 0 12 -5 12 -11 0 -6 -7 -8 -16 -5 -10 4 -14 1 -12 -6 3
-7 -4 -21 -13 -32 -14 -14 -16 -24 -8 -37 5 -11 7 -19 4 -19 -3 0 -1 -10 6
-22 9 -18 9 -20 -4 -15 -8 3 -18 3 -22 -1 -11 -11 -39 -8 -54 6 -7 7 -19 11
-25 9 -14 -6 -37 11 -53 38 -6 11 -16 19 -22 18 -13 -3 -14 16 -2 35 6 10 13
9 32 -7 18 -14 28 -17 42 -9 16 8 17 7 8 -10 -9 -16 -8 -20 5 -18 23 4 38 34
25 50 -15 17 6 35 68 57 62 22 70 22 41 -1z m260 5 c0 -8 -7 -15 -15 -15 -26
0 -18 20 13 29 1 1 2 -6 2 -14z m-961 -21 c11 7 16 1 25 -37 6 -26 5 -27 -13
-18 -11 6 -26 25 -35 42 -13 25 -13 29 -1 19 8 -6 19 -9 24 -6z m1631 6 c-8
-5 -19 -10 -25 -10 -5 0 -3 5 5 10 8 5 20 10 25 10 6 0 3 -5 -5 -10z m-44 -33
c9 3 14 -2 14 -17 0 -18 -5 -21 -33 -19 -18 2 -39 -1 -47 -6 -8 -5 -1 7 15 26
17 20 31 29 33 22 2 -6 10 -9 18 -6z m211 -29 c-3 -7 -5 -2 -5 12 0 14 2 19 5
13 2 -7 2 -19 0 -25z m-1092 -8 c3 -5 -1 -10 -9 -10 -8 0 -18 5 -21 10 -3 6 1
10 9 10 8 0 18 -4 21 -10z m990 -11 c-10 -15 -25 -10 -19 6 4 8 10 12 15 9 5
-3 7 -10 4 -15z m55 0 c0 -6 -4 -7 -10 -4 -5 3 -10 11 -10 16 0 6 5 7 10 4 6
-3 10 -11 10 -16z m252 -33 c-9 -15 -22 22 -15 41 6 16 8 15 13 -7 4 -14 5
-29 2 -34z m-1327 24 c3 -5 2 -10 -4 -10 -5 0 -13 5 -16 10 -3 6 -2 10 4 10 5
0 13 -4 16 -10z m1115 -52 c0 -10 3 -9 9 1 9 13 31 7 31 -9 0 -18 -29 -18 -46
1 -10 11 -12 19 -6 19 7 0 12 -6 12 -12z m-1223 -72 c12 3 24 0 29 -7 11 -18
13 -49 2 -49 -4 0 -7 -5 -5 -11 1 -6 -4 -14 -12 -17 -9 -3 -11 0 -6 8 4 7 -1
18 -14 26 -12 8 -21 22 -21 30 0 8 -4 14 -10 14 -5 0 -10 5 -10 11 0 8 4 8 13
1 7 -6 22 -9 34 -6z m550 -52 c-3 -3 -12 -4 -19 -1 -8 3 -5 6 6 6 11 1 17 -2
13 -5z m-817 -8 c0 -2 -7 -7 -16 -10 -8 -3 -12 -2 -9 4 6 10 25 14 25 6z m946
-24 c-3 -3 0 -12 7 -21 6 -8 -3 -5 -20 8 -40 27 -40 30 -8 23 14 -2 23 -7 21
-10z m-421 -2 c3 -5 1 -10 -4 -10 -6 0 -11 5 -11 10 0 6 2 10 4 10 3 0 8 -4
11 -10z m346 -9 c-8 -5 -10 -14 -6 -22 6 -11 5 -11 -5 -2 -14 12 -6 33 13 33
8 0 7 -3 -2 -9z m-571 -5 c0 -2 -7 -7 -16 -10 -8 -3 -12 -2 -9 4 6 10 25 14
25 6z m200 -56 c0 -5 -5 -10 -11 -10 -5 0 -7 5 -4 10 3 6 8 10 11 10 2 0 4 -4
4 -10z m220 0 c0 -5 -4 -10 -10 -10 -5 0 -10 5 -10 10 0 6 5 10 10 10 6 0 10
-4 10 -10z m25 -40 c3 -5 1 -10 -4 -10 -6 0 -11 5 -11 10 0 6 2 10 4 10 3 0 8
-4 11 -10z m-55 -10 c0 -5 -4 -10 -10 -10 -5 0 -10 5 -10 10 0 6 5 10 10 10 6
0 10 -4 10 -10z m227 -6 c-3 -3 -12 -4 -19 -1 -8 3 -5 6 6 6 11 1 17 -2 13 -5z"/>
<path d="M3340 4344 c-11 -12 -11 -18 1 -30 13 -12 18 -12 34 0 16 12 17 16 6
30 -17 20 -25 20 -41 0z"/>
<path d="M3355 4210 c3 -5 8 -10 11 -10 2 0 4 5 4 10 0 6 -5 10 -11 10 -5 0
-7 -4 -4 -10z"/>
<path d="M3570 4089 c-16 -30 -8 -31 13 -3 10 13 13 24 8 24 -6 0 -15 -9 -21
-21z"/>
<path d="M3578 4243 c7 -3 16 -2 19 1 4 3 -2 6 -13 5 -11 0 -14 -3 -6 -6z"/>
<path d="M3446 3577 c3 -10 9 -15 12 -12 3 3 0 11 -7 18 -10 9 -11 8 -5 -6z"/>
<path d="M4506 3427 c-49 -64 -29 -78 113 -76 89 1 126 10 126 29 0 11 -23 14
-115 13 l-115 0 85 7 c47 3 78 7 69 8 -12 1 -15 9 -11 27 4 25 3 25 -61 25
-63 0 -67 -2 -91 -33z"/>
<path d="M4330 3174 c0 -23 2 -24 15 -10 8 8 15 19 15 25 0 6 -7 11 -15 11 -9
0 -15 -10 -15 -26z"/>
<path d="M4849 3197 c-1 -1 -3 -12 -4 -24 -2 -18 0 -20 16 -10 26 16 30 33 8
34 -10 1 -20 1 -20 0z"/>
<path d="M2854 3053 c-3 -16 -7 -34 -10 -41 -2 -7 0 -11 5 -8 5 3 14 -1 21 -9
10 -12 9 -15 -6 -15 -11 0 -15 -3 -9 -8 6 -4 16 -19 22 -34 16 -36 47 -38 41
-3 -3 14 -1 25 3 25 5 0 9 -15 10 -32 0 -18 3 -27 6 -20 2 6 9 10 14 7 5 -4 6
2 2 12 -6 16 -5 16 10 4 9 -7 33 -15 53 -18 31 -4 36 -2 31 12 -4 9 -3 14 2
11 5 -3 8 5 7 18 0 13 -3 23 -5 20 -2 -2 -9 4 -16 13 -7 10 -17 13 -25 8 -10
-6 -9 -10 4 -17 9 -5 16 -14 16 -20 0 -9 -3 -9 -11 -1 -6 6 -23 8 -44 3 -25
-6 -32 -4 -29 5 8 21 -23 83 -45 90 -12 3 -21 11 -21 16 0 21 -20 7 -26 -18z"/>
<path d="M1585 3057 c-47 -28 -46 -48 3 -31 20 7 48 13 62 14 24 1 24 1 6 15
-23 18 -44 18 -71 2z"/>
<path d="M3388 3063 c-21 -5 -23 -19 -5 -26 6 -3 -7 -6 -29 -6 -44 -1 -70 -21
-61 -45 3 -8 16 -16 28 -18 16 -2 23 -10 24 -27 1 -13 11 -32 23 -42 l21 -17
-29 -12 c-25 -10 -33 -9 -59 9 -42 30 -48 26 -10 -6 18 -16 38 -26 44 -24 5 2
20 3 32 3 12 -1 34 5 50 13 15 8 35 15 43 15 10 1 6 9 -13 25 -15 14 -24 25
-20 25 5 0 14 10 22 22 12 19 11 23 -4 34 -10 8 -21 11 -26 9 -4 -3 -10 -1
-14 5 -8 14 4 52 15 45 5 -3 11 -1 14 4 5 7 -20 25 -27 20 -1 -1 -10 -3 -19
-6z"/>
<path d="M3856 3055 c4 -8 10 -12 15 -9 11 6 2 24 -11 24 -5 0 -7 -7 -4 -15z"/>
<path d="M4714 3059 c-8 -13 13 -29 40 -29 18 0 19 -1 1 -20 -10 -11 -15 -23
-12 -27 4 -3 7 -1 7 6 0 7 6 11 13 8 7 -3 13 5 14 21 2 38 -45 69 -63 41z"/>
<path d="M4845 3060 c3 -5 11 -10 16 -10 6 0 7 5 4 10 -3 6 -11 10 -16 10 -6
0 -7 -4 -4 -10z"/>
<path d="M5016 3058 c3 -4 -6 -8 -20 -8 -14 0 -28 -4 -31 -10 -6 -10 6 -14 36
-11 9 1 19 -8 23 -21 7 -22 7 -22 16 -3 16 37 12 64 -9 62 -11 0 -17 -5 -15
-9z"/>
<path d="M1977 3053 c-8 -12 14 -54 35 -67 13 -8 21 -7 30 2 10 10 9 18 -4 40
-16 27 -51 41 -61 25z"/>
<path d="M3907 3048 c-9 -5 -17 -16 -17 -24 0 -18 71 -97 79 -88 11 11 9 94
-3 102 -21 16 -42 20 -59 10z"/>
<path d="M4490 3051 c0 -9 24 -21 42 -21 6 0 6 6 -2 15 -14 16 -40 20 -40 6z"/>
<path d="M1730 3030 c4 -26 -1 -56 -7 -42 -4 10 -8 10 -21 0 -10 -7 -14 -9
-10 -4 4 4 2 14 -5 21 -9 9 -15 7 -30 -12 -10 -13 -17 -30 -14 -37 3 -8 -1
-17 -9 -20 -8 -3 -14 -12 -14 -20 0 -7 -9 -16 -21 -19 -22 -6 -23 -44 -1 -39
10 2 73 9 104 11 10 1 38 31 38 42 0 5 -9 9 -20 9 -18 0 -45 32 -34 42 9 10
54 -5 54 -18 0 -22 18 -25 40 -7 21 18 27 43 11 43 -5 0 -11 -6 -14 -12 -2 -7
-8 -10 -12 -6 -4 4 -3 14 3 21 9 11 6 19 -14 38 -18 16 -25 19 -24 9z"/>
<path d="M2060 3030 c0 -5 5 -10 10 -10 6 0 10 5 10 10 0 6 -4 10 -10 10 -5 0
-10 -4 -10 -10z"/>
<path d="M3230 3020 c0 -23 10 -26 28 -8 18 18 15 28 -8 28 -13 0 -20 -7 -20
-20z"/>
<path d="M3803 3013 c-19 -40 -16 -52 13 -64 21 -7 31 -6 45 7 21 19 25 34 9
34 -5 0 -10 -8 -11 -17 0 -14 -2 -15 -6 -3 -3 8 -11 19 -17 23 -7 6 -4 7 7 3
21 -7 22 7 1 28 -21 22 -27 20 -41 -11z"/>
<path d="M4902 3016 c4 -28 48 -36 48 -8 0 13 -9 21 -26 25 -21 4 -25 1 -22
-17z"/>
<path d="M3097 3023 c-14 -13 -6 -33 13 -33 11 0 20 5 20 10 0 6 -5 10 -11 10
-5 0 -7 5 -4 10 7 11 -8 14 -18 3z"/>
<path d="M1810 3011 c0 -13 26 -32 33 -24 14 13 6 33 -13 33 -11 0 -20 -4 -20
-9z"/>
<path d="M4790 3012 c0 -15 11 -21 27 -15 12 5 12 7 1 14 -17 11 -28 11 -28 1z"/>
<path d="M1600 2985 c0 -25 14 -33 25 -15 3 6 2 10 -4 10 -6 0 -8 7 -5 15 4 8
1 15 -5 15 -6 0 -11 -11 -11 -25z"/>
<path d="M4398 2983 c-2 -23 -8 -29 -35 -31 -44 -4 -42 -22 1 -22 21 0 36 6
40 15 3 8 12 12 21 9 18 -7 21 26 3 44 -19 19 -26 14 -30 -15z"/>
<path d="M4286 2985 c-3 -8 -1 -15 3 -15 5 0 11 7 15 15 3 8 1 15 -3 15 -5 0
-11 -7 -15 -15z"/>
<path d="M4679 2998 c-1 -2 -3 -13 -4 -25 -2 -16 2 -20 13 -15 10 3 11 7 5 9
-7 3 -9 11 -6 19 4 11 -3 22 -8 12z"/>
<path d="M3120 2980 c-12 -7 -12 -13 -4 -27 15 -24 50 -28 70 -8 18 18 18 18
-13 34 -26 13 -34 14 -53 1z"/>
<path d="M986 2964 c-9 -22 -7 -62 2 -68 19 -11 34 12 27 43 -8 36 -20 47 -29
25z"/>
<path d="M1020 2971 c0 -6 5 -13 10 -16 6 -3 10 1 10 9 0 9 -4 16 -10 16 -5 0
-10 -4 -10 -9z"/>
<path d="M2572 2973 c24 -50 34 -63 49 -63 15 0 29 19 29 39 0 10 -46 31 -66
31 -8 0 -14 -3 -12 -7z"/>
<path d="M3242 2964 c-12 -8 -22 -19 -22 -25 0 -10 43 -12 78 -3 26 8 29 24 4
24 -10 0 -22 4 -28 10 -6 6 -17 5 -32 -6z"/>
<path d="M4905 2970 c3 -5 8 -10 11 -10 2 0 4 5 4 10 0 6 -5 10 -11 10 -5 0
-7 -4 -4 -10z"/>
<path d="M4955 2969 c-11 -17 1 -21 15 -4 8 9 8 15 2 15 -6 0 -14 -5 -17 -11z"/>
<path d="M4993 2965 c-3 -9 -3 -19 1 -22 3 -4 6 -1 6 6 0 7 4 10 8 7 5 -3 9 1
9 9 0 20 -16 19 -24 0z"/>
<path d="M2722 2954 c-14 -15 -13 -16 33 -18 17 0 31 -4 33 -8 5 -18 1 -38 -8
-38 -5 0 -10 6 -10 14 0 24 -38 14 -45 -11 -3 -13 -11 -20 -19 -17 -9 4 -13
-3 -13 -20 0 -14 6 -27 14 -30 8 -3 11 -10 8 -16 -5 -9 7 -14 26 -12 4 1 20
-3 37 -7 25 -7 34 -5 48 10 16 18 16 19 -14 19 -17 0 -33 4 -36 8 -2 4 11 6
30 4 25 -3 39 1 48 13 12 17 14 17 40 0 14 -10 29 -15 33 -12 13 14 -9 53 -39
72 -47 28 -48 28 -48 12 0 -8 -9 -17 -20 -20 -21 -5 -28 7 -10 18 8 5 8 11 1
19 -6 7 -8 16 -4 20 4 4 -8 4 -26 1 -19 -3 -37 -2 -40 3 -3 6 -12 4 -19 -4z
m112 -100 c5 -14 4 -15 -8 -5 -7 6 -22 9 -32 5 -16 -5 -16 -4 -4 5 21 15 37
13 44 -5z m-18 -53 c-3 -5 -15 -7 -26 -4 -28 7 -25 13 6 13 14 0 23 -4 20 -9z"/>
<path d="M4010 2959 c0 -5 5 -7 10 -4 6 3 10 8 10 11 0 2 -4 4 -10 4 -5 0 -10
-5 -10 -11z"/>
<path d="M5051 2948 c0 -22 16 -68 19 -58 5 16 7 57 3 68 -8 20 -23 14 -22
-10z"/>
<path d="M3882 2940 c-23 -22 -30 -36 -12 -25 6 4 16 2 23 -3 8 -7 18 -6 31 4
16 11 17 16 6 29 -16 20 -22 19 -48 -5z"/>
<path d="M3767 2944 c-13 -13 5 -24 36 -24 30 1 31 1 13 15 -21 16 -39 19 -49
9z"/>
<path d="M2670 2931 c0 -9 24 -21 43 -21 6 0 2 7 -9 15 -22 17 -34 19 -34 6z"/>
<path d="M4591 2924 c0 -11 3 -14 6 -6 3 7 2 16 -1 19 -3 4 -6 -2 -5 -13z"/>
<path d="M3700 2922 c0 -5 7 -9 15 -9 8 0 15 4 15 9 0 4 -7 8 -15 8 -8 0 -15
-4 -15 -8z"/>
<path d="M5007 2923 c-10 -10 -8 -43 2 -43 9 0 21 24 21 41 0 11 -14 12 -23 2z"/>
<path d="M4670 2909 c0 -20 -47 -43 -53 -26 -3 9 -7 9 -17 0 -17 -16 -5 -43
18 -43 10 0 29 11 42 25 26 27 49 32 69 13 10 -10 10 -8 0 10 -8 13 -20 20
-28 17 -8 -3 -18 0 -23 7 -6 10 -8 9 -8 -3z"/>
<path d="M3694 2884 c3 -9 6 -19 6 -23 0 -9 46 -8 56 2 5 4 0 5 -11 2 -16 -6
-17 -5 -5 3 18 13 43 -5 36 -24 -6 -15 12 -14 30 1 13 11 7 38 -6 30 -5 -3
-10 0 -12 6 -2 6 -25 13 -52 15 -40 3 -47 1 -42 -12z"/>
<path d="M4000 2890 c0 -5 5 -10 11 -10 5 0 7 5 4 10 -3 6 -8 10 -11 10 -2 0
-4 -4 -4 -10z"/>
<path d="M4201 2892 c-1 -7 -5 -11 -11 -7 -5 3 -21 3 -36 -1 -22 -6 -24 -8
-10 -16 9 -5 21 -6 27 -3 6 4 19 -1 30 -11 11 -10 19 -12 19 -6 0 7 -4 12 -10
12 -5 0 -10 5 -10 12 0 6 8 4 19 -6 11 -10 17 -25 14 -33 -4 -11 0 -14 13 -11
24 4 33 48 10 48 -9 0 -16 5 -16 11 0 6 -6 9 -14 6 -8 -3 -17 -1 -20 6 -3 9
-5 8 -5 -1z"/>
<path d="M2420 2875 c7 -8 16 -12 21 -9 13 8 1 24 -18 24 -13 0 -13 -3 -3 -15z"/>
<path d="M3009 2883 c-22 -5 -31 -39 -14 -53 9 -7 17 -4 30 14 12 15 25 22 39
19 21 -4 21 -4 2 11 -20 16 -27 17 -57 9z"/>
<path d="M3114 2864 c-16 -13 -35 -23 -41 -24 -21 0 -15 -38 9 -54 22 -16 103
-12 122 5 5 4 0 5 -11 3 -12 -3 -24 -1 -27 5 -4 6 0 11 8 11 9 0 16 5 16 10 0
6 -5 10 -10 10 -6 0 -8 10 -4 24 8 34 -26 40 -62 10z m0 -73 c-7 -8 -35 9 -29
19 4 6 11 5 20 -3 7 -6 11 -14 9 -16z"/>
<path d="M3510 2870 c0 -5 7 -7 15 -4 8 4 15 8 15 10 0 2 -7 4 -15 4 -8 0 -15
-4 -15 -10z"/>
<path d="M5043 2868 c-12 -15 -13 -48 -2 -48 6 0 20 52 15 58 -2 1 -8 -3 -13
-10z"/>
<path d="M3192 2854 c2 -11 11 -20 22 -22 13 -3 17 1 14 14 -2 11 -11 20 -22
22 -13 3 -17 -1 -14 -14z"/>
<path d="M3550 2856 c0 -9 5 -16 10 -16 6 0 10 4 10 9 0 6 -4 13 -10 16 -5 3
-10 -1 -10 -9z"/>
<path d="M4801 2854 c0 -11 3 -14 6 -6 3 7 2 16 -1 19 -3 4 -6 -2 -5 -13z"/>
<path d="M1699 2845 c0 -11 -3 -14 -6 -7 -2 6 -11 12 -19 12 -8 0 -11 -6 -8
-15 4 -8 1 -15 -6 -15 -6 0 -9 -4 -6 -8 7 -12 66 -2 66 12 0 6 -5 18 -10 26
-8 12 -10 12 -11 -5z"/>
<path d="M1740 2844 c0 -7 5 -16 10 -19 6 -3 10 -1 10 4 0 6 7 11 15 11 8 0
15 4 15 8 0 4 -11 8 -25 8 -14 0 -25 -6 -25 -12z"/>
<path d="M4075 2850 c-3 -5 -2 -10 4 -10 5 0 13 5 16 10 3 6 2 10 -4 10 -5 0
-13 -4 -16 -10z"/>
<path d="M4370 2842 c0 -10 -9 -25 -20 -35 -26 -22 -25 -28 5 -61 20 -22 28
-25 45 -16 11 6 26 22 33 37 13 23 12 28 -5 45 -10 10 -16 23 -13 27 2 5 -2
12 -11 15 -26 10 -34 7 -34 -12z m15 -52 c3 -5 1 -10 -4 -10 -6 0 -11 5 -11
10 0 6 2 10 4 10 3 0 8 -4 11 -10z"/>
<path d="M4471 2834 c0 -11 3 -14 6 -6 3 7 2 16 -1 19 -3 4 -6 -2 -5 -13z"/>
<path d="M4966 2833 c10 -25 7 -77 -6 -81 -5 -2 -10 -8 -10 -14 0 -6 9 -3 20
7 27 25 26 105 -2 105 -6 0 -7 -7 -2 -17z"/>
<path d="M1036 2818 c5 -7 2 -9 -9 -5 -11 4 -14 2 -10 -9 3 -8 11 -13 17 -11
15 5 20 37 6 37 -6 0 -8 -5 -4 -12z"/>
<path d="M2573 2815 c-3 -9 -2 -19 1 -23 8 -8 38 10 44 26 6 18 -38 14 -45 -3z"/>
<path d="M3980 2815 c-10 -12 -9 -15 4 -15 11 0 15 5 10 13 -4 7 -3 9 2 4 5
-5 9 -14 9 -20 0 -7 8 -13 18 -15 21 -4 22 14 3 34 -19 18 -30 18 -46 -1z"/>
<path d="M4153 2823 c-24 -5 -56 -41 -48 -54 3 -4 24 -6 47 -5 41 1 43 3 46
34 3 33 2 34 -45 25z"/>
<path d="M1338 2795 c2 -14 6 -25 8 -25 2 0 4 11 4 25 0 14 -4 25 -9 25 -4 0
-6 -11 -3 -25z"/>
<path d="M3313 2801 c-10 -15 -7 -25 14 -56 29 -43 43 -37 45 19 2 52 -35 76
-59 37z"/>
<path d="M3784 2811 c5 -8 0 -10 -18 -7 -32 6 -41 -7 -20 -28 25 -25 54 -20
54 8 0 14 -5 28 -12 32 -7 4 -8 3 -4 -5z"/>
<path d="M966 2792 c-2 -4 -1 -14 5 -22 7 -12 9 -10 9 8 0 23 -5 28 -14 14z"/>
<path d="M1516 2777 c3 -10 9 -15 12 -12 3 3 0 11 -7 18 -10 9 -11 8 -5 -6z"/>
<path d="M3451 2775 c-1 -24 16 -45 36 -45 7 0 13 9 13 19 0 12 11 23 28 29
15 6 20 11 11 11 -9 1 -28 -8 -43 -20 l-26 -21 -9 24 c-9 21 -10 21 -10 3z"/>
<path d="M4081 2774 c0 -11 3 -14 6 -6 3 7 2 16 -1 19 -3 4 -6 -2 -5 -13z"/>
<path d="M3860 2770 c0 -5 7 -10 15 -10 8 0 15 5 15 10 0 6 -7 10 -15 10 -8 0
-15 -4 -15 -10z"/>
<path d="M3970 2765 c-7 -8 -9 -15 -4 -16 5 0 16 -2 25 -4 12 -2 15 3 12 16
-6 23 -16 24 -33 4z"/>
<path d="M1366 2754 c-8 -20 0 -32 14 -18 5 5 5 15 1 22 -6 11 -10 10 -15 -4z"/>
<path d="M4020 2754 c0 -8 5 -25 11 -36 9 -18 9 -20 -4 -15 -9 3 -17 1 -19 -5
-7 -19 25 -45 47 -39 18 4 19 3 5 -14 -12 -16 -10 -16 13 2 16 12 34 20 42 17
7 -3 16 -1 20 5 3 6 0 11 -7 11 -10 0 -10 2 1 9 19 12 4 31 -25 31 -14 0 -35
11 -48 25 -27 29 -36 31 -36 9z"/>
<path d="M2898 2739 c-9 -9 -14 -20 -12 -22 3 -3 0 -8 -7 -13 -7 -4 -10 -3 -6
3 11 17 -19 36 -39 25 -11 -6 -13 -11 -5 -16 6 -4 11 -2 11 4 0 6 5 8 10 5 6
-4 8 -10 5 -14 -9 -15 42 -53 66 -49 19 2 24 10 26 40 2 46 -22 65 -49 37z"/>
<path d="M3652 2748 c6 -18 28 -21 28 -4 0 9 -7 16 -16 16 -9 0 -14 -5 -12
-12z"/>
<path d="M3717 2730 c-6 -27 -3 -38 12 -54 17 -16 23 -17 35 -6 9 7 16 17 16
23 0 7 -4 7 -12 -1 -23 -23 -37 -13 -40 31 l-3 42 -8 -35z"/>
<path d="M3013 2742 c-9 -5 -6 -12 10 -21 19 -13 21 -12 10 1 -7 8 -10 18 -6
21 9 9 1 8 -14 -1z"/>
<path d="M3240 2731 c0 -20 26 -36 35 -21 5 7 -20 40 -31 40 -2 0 -4 -9 -4
-19z"/>
<path d="M3870 2740 c0 -5 5 -10 11 -10 5 0 7 5 4 10 -3 6 -8 10 -11 10 -2 0
-4 -4 -4 -10z"/>
<path d="M1605 2730 c-3 -5 -1 -10 4 -10 6 0 11 5 11 10 0 6 -2 10 -4 10 -3 0
-8 -4 -11 -10z"/>
<path d="M4230 2724 c0 -8 5 -12 10 -9 6 3 10 10 10 16 0 5 -4 9 -10 9 -5 0
-10 -7 -10 -16z"/>
<path d="M3573 2707 c-1 -10 1 -17 4 -13 3 3 12 1 19 -5 8 -7 14 -7 19 1 8 13
-1 27 -23 32 -13 4 -18 -1 -19 -15z"/>
<path d="M3105 2694 c11 -8 19 -17 18 -19 -8 -15 0 -25 18 -25 19 0 19 1 5 16
-21 21 -20 23 7 17 21 -4 22 -4 3 11 -11 9 -31 16 -45 16 -25 -1 -26 -1 -6
-16z"/>
<path d="M3019 2692 c9 -7 10 -11 2 -17 -16 -9 5 -35 28 -34 12 0 11 2 -4 9
-13 6 -15 9 -5 9 12 1 12 3 2 10 -8 4 -13 12 -12 17 1 5 -4 10 -12 12 -10 3
-10 2 1 -6z"/>
<path d="M3444 2675 c-10 -24 14 -46 35 -33 17 10 17 13 2 30 -19 22 -30 23
-37 3z"/>
<path d="M4289 2683 c0 -5 -2 -18 -3 -30 -2 -13 1 -23 5 -23 5 0 6 -7 3 -15
-4 -9 0 -15 9 -15 19 0 31 33 23 66 -6 22 -35 35 -37 17z"/>
<path d="M4533 2668 c-2 -16 1 -18 10 -9 7 7 8 14 1 21 -6 6 -10 2 -11 -12z"/>
<path d="M4721 2664 c0 -11 3 -14 6 -6 3 7 2 16 -1 19 -3 4 -6 -2 -5 -13z"/>
<path d="M4765 2659 c-5 -14 -2 -25 6 -30 10 -6 11 -9 2 -9 -7 0 -13 -6 -13
-12 1 -16 50 39 50 54 0 7 -7 3 -16 -8 -15 -19 -15 -18 -11 4 6 28 -9 29 -18
1z"/>
<path d="M2960 2656 c0 -3 9 -10 20 -16 11 -6 20 -8 20 -6 0 3 -9 10 -20 16
-11 6 -20 8 -20 6z"/>
<path d="M1180 2640 c-9 -6 -10 -10 -3 -10 6 0 15 5 18 10 8 12 4 12 -15 0z"/>
<path d="M4677 2643 c-4 -3 -7 -11 -7 -17 0 -6 5 -5 12 2 6 6 9 14 7 17 -3 3
-9 2 -12 -2z"/>
<path d="M4906 2635 c-9 -24 -8 -25 15 -25 14 0 19 5 17 17 -4 23 -24 27 -32
8z"/>
<path d="M5046 2642 c-3 -5 1 -9 9 -9 8 0 15 4 15 9 0 4 -4 8 -9 8 -6 0 -12
-4 -15 -8z"/>
<path d="M3080 2619 c0 -7 -10 -9 -24 -5 -37 9 -53 -17 -26 -44 27 -27 44 -22
50 16 4 19 8 25 13 17 11 -18 28 -16 21 1 -7 18 -34 29 -34 15z"/>
<path d="M3150 2620 c0 -5 7 -10 16 -10 8 0 12 5 9 10 -3 6 -10 10 -16 10 -5
0 -9 -4 -9 -10z"/>
<path d="M2964 2599 c25 -20 26 -22 9 -34 -17 -13 -17 -14 1 -21 22 -9 35 9
28 41 -2 14 -9 22 -17 19 -7 -3 -16 -1 -20 5 -3 6 -11 11 -17 11 -6 0 1 -9 16
-21z"/>
<path d="M3563 2610 c-31 -12 -48 -46 -27 -54 9 -3 24 -6 34 -6 22 0 45 26 31
34 -6 4 -8 13 -4 21 6 17 -2 18 -34 5z"/>
<path d="M4205 2610 c-4 -6 -1 -17 5 -25 10 -11 10 -15 1 -15 -7 0 -10 -4 -6
-10 9 -15 31 -1 32 20 1 12 -4 20 -13 20 -8 0 -12 5 -9 10 3 6 4 10 1 10 -3 0
-8 -5 -11 -10z"/>
<path d="M4420 2595 c13 -14 25 -25 27 -25 2 0 -4 11 -13 25 -9 14 -21 25 -27
25 -6 0 0 -11 13 -25z"/>
<path d="M3285 2589 c-4 -6 -5 -11 -4 -12 2 -1 19 -13 37 -25 18 -13 40 -21
47 -18 8 3 18 -2 23 -10 6 -11 16 -13 36 -8 15 4 24 9 18 13 -5 3 -14 16 -21
29 -9 16 -21 22 -46 22 -18 0 -37 5 -40 10 -8 13 -42 13 -50 -1z"/>
<path d="M1460 2575 c0 -4 9 -18 20 -32 11 -14 20 -22 20 -18 0 4 -9 18 -20
32 -11 14 -20 22 -20 18z"/>
<path d="M4075 2559 c-5 -14 -1 -25 10 -33 16 -12 16 -13 0 -30 -23 -22 -11
-34 13 -13 10 10 21 15 24 12 3 -3 4 11 2 31 -4 51 -37 73 -49 33z"/>
<path d="M3892 2542 c-13 -10 -24 -30 -25 -47 -2 -24 2 -31 21 -33 23 -4 56
21 44 33 -4 3 1 11 11 16 9 6 17 19 17 29 0 26 -36 26 -68 2z"/>
<path d="M4460 2545 c-10 -12 -10 -15 0 -15 7 0 10 -7 6 -16 -5 -14 -4 -15 9
-4 17 14 20 36 6 44 -5 3 -14 -1 -21 -9z"/>
<path d="M3170 2540 c0 -5 7 -10 16 -10 8 0 12 5 9 10 -3 6 -10 10 -16 10 -5
0 -9 -4 -9 -10z"/>
<path d="M3252 2534 c9 -9 21 -13 27 -10 20 13 11 26 -16 26 -25 0 -26 -1 -11
-16z"/>
<path d="M4015 2517 c4 -10 2 -17 -4 -17 -6 0 -11 -6 -11 -14 0 -8 7 -13 15
-12 28 4 33 20 13 41 -16 17 -18 17 -13 2z"/>
<path d="M3352 2509 c2 -7 10 -15 17 -17 8 -3 12 1 9 9 -2 7 -10 15 -17 17 -8
3 -12 -1 -9 -9z"/>
<path d="M3768 2488 c5 -5 16 -8 23 -6 8 3 3 7 -10 11 -17 4 -21 3 -13 -5z"/>
<path d="M4625 2479 c-10 -31 12 -49 30 -26 15 21 10 47 -10 47 -8 0 -17 -9
-20 -21z"/>
<path d="M2998 2460 c2 -16 8 -28 12 -25 12 8 9 55 -5 55 -7 0 -10 -11 -7 -30z"/>
<path d="M3186 2474 c-17 -45 3 -83 33 -64 15 8 6 46 -14 67 -11 10 -14 10
-19 -3z"/>
<path d="M3457 2483 c-15 -14 -6 -33 16 -32 21 0 21 1 2 9 -19 8 -19 8 5 18
22 10 23 11 4 11 -11 1 -24 -2 -27 -6z"/>
<path d="M4137 2476 c-4 -10 -1 -13 8 -9 8 3 12 9 9 14 -7 12 -11 11 -17 -5z"/>
<path d="M3570 2462 c0 -5 7 -9 15 -9 8 0 15 4 15 9 0 4 -7 8 -15 8 -8 0 -15
-4 -15 -8z"/>
<path d="M3254 2433 c-16 -16 -22 -29 -16 -31 7 -2 12 -10 12 -17 0 -35 87
-64 105 -35 4 6 11 7 17 4 7 -4 8 4 3 26 -5 22 -4 30 3 26 13 -8 23 6 14 21
-5 7 -21 8 -47 3 -30 -6 -33 -8 -13 -9 20 -1 25 -5 21 -20 -3 -13 -11 -17 -24
-14 -10 3 -17 9 -14 13 3 5 -5 10 -17 12 -33 4 -24 22 14 28 32 5 32 6 8 13
-36 10 -36 10 -66 -20z"/>
<path d="M3820 2450 c0 -5 4 -10 9 -10 6 0 13 5 16 10 3 6 -1 10 -9 10 -9 0
-16 -4 -16 -10z"/>
<path d="M4218 2434 c-18 -17 -8 -44 16 -44 14 0 28 5 31 10 3 6 -3 10 -14 10
-11 0 -21 7 -23 16 -2 9 -6 12 -10 8z"/>
<path d="M1136 2410 c8 -32 24 -51 35 -44 13 7 11 44 -2 44 -5 0 -7 -6 -4 -12
4 -7 -3 -2 -15 12 l-21 25 7 -25z"/>
<path d="M3948 2418 c7 -7 12 -18 12 -26 0 -7 7 -20 15 -29 14 -14 15 -13 10
13 -11 49 -14 54 -32 54 -13 0 -14 -3 -5 -12z"/>
<path d="M4705 2418 c-27 -16 -44 -39 -45 -61 0 -10 -7 -32 -16 -49 -11 -22
-12 -28 -2 -22 7 5 20 7 29 6 9 -2 22 5 30 14 13 16 12 17 -8 12 -18 -5 -23
-2 -23 13 0 10 4 19 8 19 4 0 8 10 9 22 1 12 12 30 25 40 26 20 23 23 -7 6z"/>
<path d="M4955 2420 c-3 -5 1 -10 9 -10 8 0 18 5 21 10 3 6 -1 10 -9 10 -8 0
-18 -4 -21 -10z"/>
<path d="M1400 2402 c0 -4 7 -18 16 -30 24 -35 13 -49 -40 -46 -25 2 -46 -1
-46 -6 0 -4 -3 -17 -6 -27 -4 -11 -3 -14 3 -7 15 21 50 26 57 8 6 -15 4 -15
-10 -3 -16 13 -16 12 -6 -8 15 -27 15 -36 2 -28 -6 4 -7 -1 -3 -11 4 -11 8
-13 11 -6 2 7 8 10 12 7 5 -3 12 0 16 6 4 8 3 9 -4 5 -19 -11 -14 18 6 34 9 9
25 14 35 12 17 -3 18 0 12 29 -4 19 -15 44 -24 56 -16 22 -31 30 -31 15z"/>
<path d="M3487 2403 c-4 -3 -7 -12 -7 -20 0 -15 26 -18 35 -3 4 6 -1 7 -11 3
-13 -5 -16 -3 -11 10 7 18 5 21 -6 10z"/>
<path d="M4776 2394 c-11 -8 -16 -14 -10 -14 13 0 39 18 34 24 -3 2 -14 -2
-24 -10z"/>
<path d="M4981 2400 c-11 -6 -10 -9 0 -16 16 -10 39 -14 39 -7 0 13 -28 30
-39 23z"/>
<path d="M3870 2386 c0 -23 22 -76 31 -76 6 0 5 8 -1 19 -17 33 -12 59 13 64
16 3 13 5 -10 6 -22 1 -33 -4 -33 -13z"/>
<path d="M4105 2369 c-11 -17 1 -21 15 -4 8 9 8 15 2 15 -6 0 -14 -5 -17 -11z"/>
<path d="M3935 2350 c3 -5 14 -10 23 -10 15 0 15 2 2 10 -20 13 -33 13 -25 0z"/>
<path d="M4917 2353 c-4 -3 -7 -11 -7 -17 0 -6 5 -5 12 2 6 6 9 14 7 17 -3 3
-9 2 -12 -2z"/>
<path d="M1460 2342 c0 -6 11 -17 24 -25 20 -14 26 -14 36 -3 7 9 7 16 1 20
-5 4 -11 -1 -13 -10 -2 -13 -6 -12 -25 6 -13 11 -23 17 -23 12z"/>
<path d="M3856 2320 c4 -19 7 -35 8 -36 45 -25 63 -46 61 -74 -1 -19 3 -30 11
-30 7 0 11 -6 8 -14 -6 -16 35 -29 61 -20 19 8 14 29 -7 28 -18 -1 -23 53 -6
75 12 15 14 26 9 76 -1 16 -5 14 -15 -11 -18 -42 -27 -46 -60 -28 -16 7 -34
14 -41 14 -7 0 -18 12 -24 28 -10 25 -10 25 -5 -8z"/>
<path d="M1249 2313 c6 -13 18 -23 26 -23 8 0 22 -13 32 -30 16 -28 43 -45 27
-17 -19 32 -57 78 -62 73 -3 -3 -12 0 -20 7 -13 10 -14 9 -3 -10z"/>
<path d="M4394 2295 c-3 -8 -4 -20 -2 -27 3 -7 7 -1 10 15 6 29 1 36 -8 12z"/>
<path d="M4558 2293 c7 -3 16 -2 19 1 4 3 -2 6 -13 5 -11 0 -14 -3 -6 -6z"/>
<path d="M4551 2268 c3 -27 -1 -39 -12 -32 -7 4 -9 0 -5 -13 4 -11 2 -32 -3
-47 -7 -17 -7 -26 -1 -26 6 0 10 4 10 9 0 5 7 17 17 26 13 13 13 19 3 25 -7 4
-8 9 -3 11 6 2 13 16 17 32 5 21 3 27 -9 27 -9 0 -15 -6 -14 -12z"/>
<path d="M4035 2260 c3 -5 -1 -10 -9 -10 -19 0 -41 -39 -29 -50 16 -16 78 -16
68 0 -3 6 3 10 14 10 14 0 21 6 20 18 0 10 -3 12 -6 5 -2 -7 -9 -13 -15 -13
-6 0 -7 8 -4 17 4 9 1 20 -6 25 -18 11 -40 10 -33 -2z"/>
<path d="M4177 2253 c-12 -11 -8 -23 7 -23 7 0 20 8 27 18 11 14 11 15 -1 5
-17 -15 -34 -17 -25 -3 7 11 2 13 -8 3z"/>
<path d="M1443 2233 c-7 -2 -13 -13 -13 -24 0 -10 -4 -19 -9 -19 -5 0 -8 -10
-7 -23 0 -13 7 -24 14 -24 7 0 12 7 11 16 -3 37 1 43 26 39 28 -6 30 -1 11 25
-14 18 -14 18 -33 10z"/>
<path d="M1967 2186 c20 -26 27 -28 17 -3 -3 8 -12 18 -20 21 -11 4 -10 0 3
-18z"/>
<path d="M1383 2165 c0 -8 4 -12 9 -9 5 3 6 10 3 15 -9 13 -12 11 -12 -6z"/>
<path d="M1935 2170 c-3 -6 1 -13 10 -16 19 -8 30 0 20 15 -8 14 -22 14 -30 1z"/>
<path d="M1460 2163 c0 -4 5 -15 10 -23 8 -13 10 -13 10 2 0 9 -4 20 -10 23
-5 3 -10 3 -10 -2z"/>
<path d="M1585 2160 c3 -5 8 -10 11 -10 2 0 4 5 4 10 0 6 -5 10 -11 10 -5 0
-7 -4 -4 -10z"/>
<path d="M1341 2133 c-1 -12 4 -25 9 -28 12 -7 12 2 0 30 -8 19 -9 19 -9 -2z"/>
<path d="M3225 2133 c14 -15 55 -26 55 -15 0 5 -6 9 -12 9 -7 0 -22 4 -33 8
-14 6 -17 5 -10 -2z"/>
<path d="M4882 2100 c0 -14 2 -19 5 -12 2 6 2 18 0 25 -3 6 -5 1 -5 -13z"/>
<path d="M1470 2100 c-13 -8 -12 -10 3 -10 9 0 17 5 17 10 0 12 -1 12 -20 0z"/>
<path d="M4605 2090 c-3 -5 -1 -10 4 -10 6 0 11 5 11 10 0 6 -2 10 -4 10 -3 0
-8 -4 -11 -10z"/>
<path d="M1997 2078 c-6 -18 10 -46 34 -59 20 -10 20 -10 4 15 -10 14 -22 26
-29 26 -6 0 -6 4 3 9 8 5 9 11 3 15 -6 3 -12 0 -15 -6z"/>
<path d="M3240 2083 c0 -5 4 -15 10 -23 11 -18 25 -7 17 15 -6 15 -27 21 -27
8z"/>
<path d="M1450 2060 c0 -5 12 -21 26 -35 19 -19 30 -23 37 -16 8 8 4 18 -13
36 -24 25 -50 33 -50 15z"/>
<path d="M1720 2046 c0 -9 5 -16 10 -16 6 0 10 4 10 9 0 6 -4 13 -10 16 -5 3
-10 -1 -10 -9z"/>
<path d="M3924 2045 c-12 -8 -25 -11 -29 -7 -3 4 -13 -2 -21 -12 -12 -17 -14
-18 -14 -3 0 17 -33 23 -64 11 -17 -7 -8 -21 29 -42 19 -11 18 -11 -7 -12 -28
0 -45 -14 -29 -24 5 -4 12 -2 16 4 4 6 11 8 16 4 5 -3 7 -10 4 -15 -4 -5 -2
-9 3 -9 6 0 13 7 16 16 4 11 16 15 39 13 27 -3 41 4 73 34 24 23 45 35 56 31
9 -2 19 -1 22 4 3 5 -10 8 -29 7 -19 0 -35 3 -35 7 0 13 -24 9 -46 -7z m-94
-31 c0 -8 -4 -12 -10 -9 -5 3 -10 10 -10 16 0 5 5 9 10 9 6 0 10 -7 10 -16z"/>
<path d="M4361 2034 c0 -11 3 -14 6 -6 3 7 2 16 -1 19 -3 4 -6 -2 -5 -13z"/>
<path d="M1694 2029 c-4 -7 2 -20 17 -32 21 -17 24 -17 27 -3 2 9 8 16 13 16
6 0 7 5 4 10 -4 6 -11 8 -16 4 -5 -3 -16 -1 -24 6 -10 8 -15 8 -21 -1z"/>
<path d="M2003 2012 c15 -16 24 -32 20 -37 -5 -5 0 -3 10 4 17 13 24 27 9 17
-5 -3 -16 6 -26 20 -11 13 -24 24 -29 24 -6 0 1 -13 16 -28z"/>
<path d="M3327 2029 c7 -7 15 -10 18 -7 3 3 -2 9 -12 12 -14 6 -15 5 -6 -5z"/>
<path d="M3102 2013 c2 -11 11 -17 21 -15 10 2 16 -1 15 -7 -3 -9 1 -11 23
-11 8 0 8 5 -1 15 -7 8 -19 15 -26 15 -8 0 -14 5 -14 10 0 6 -5 10 -11 10 -6
0 -9 -8 -7 -17z"/>
<path d="M1305 2000 c-4 -13 2 -32 16 -53 36 -50 47 -59 68 -52 18 5 16 11
-20 65 -43 64 -54 71 -64 40z"/>
<path d="M1780 2016 c0 -2 8 -10 18 -17 15 -13 16 -12 3 4 -13 16 -21 21 -21
13z"/>
<path d="M4045 2011 c3 -5 -1 -11 -7 -14 -7 -2 -11 -7 -8 -10 3 -3 13 0 23 8
16 11 16 13 2 19 -9 3 -14 2 -10 -3z"/>
<path d="M4564 1999 c-10 -11 -32 -28 -49 -36 -16 -9 -37 -23 -46 -32 -19 -20
-50 -81 -40 -81 8 0 51 29 69 47 8 7 18 10 24 7 6 -4 14 -1 18 5 5 9 13 9 33
0 20 -9 27 -20 27 -41 0 -47 38 -26 63 34 15 36 15 37 -6 40 -15 2 -26 14 -33
38 -14 42 -33 48 -60 19z"/>
<path d="M4135 1990 c-2 -4 9 -7 25 -8 16 0 32 3 34 7 3 4 -8 8 -25 8 -16 0
-32 -3 -34 -7z"/>
<path d="M1520 1961 c5 -11 15 -23 20 -26 13 -8 13 -45 1 -45 -5 0 -12 13 -16
29 -3 16 -12 34 -19 40 -9 8 -12 0 -10 -36 0 -27 6 -49 13 -51 9 -3 7 -10 -5
-23 -16 -18 -16 -19 -1 -13 11 4 17 1 17 -9 0 -18 -21 -17 -44 2 -24 20 -19 1
9 -42 24 -34 55 -50 55 -27 0 6 9 10 19 10 10 0 19 6 18 13 -1 42 3 50 20 36
15 -12 16 -12 9 6 -5 11 -9 33 -11 50 -1 16 -7 31 -14 33 -6 2 -11 8 -11 14 0
10 -46 58 -56 58 -3 0 0 -9 6 -19z m-2 -56 c-3 -3 -9 2 -12 12 -6 14 -5 15 5
6 7 -7 10 -15 7 -18z"/>
<path d="M3333 1967 c7 -19 -11 -45 -20 -31 -11 15 -43 25 -43 13 0 -5 11 -14
24 -20 19 -9 31 -7 62 11 21 11 31 19 22 16 -9 -3 -19 2 -22 10 -3 8 -10 14
-17 14 -6 0 -9 -6 -6 -13z"/>
<path d="M3061 1958 c3 -26 -1 -39 -11 -33 -5 3 -10 -1 -10 -9 0 -12 10 -16
40 -16 26 0 40 5 40 13 -1 17 -26 48 -33 40 -4 -3 -7 -1 -7 5 0 7 -5 12 -10
12 -6 0 -10 -6 -9 -12z"/>
<path d="M3157 1963 c-4 -3 -2 -12 4 -19 8 -10 5 -11 -11 -7 -20 5 -21 4 -9
-16 8 -11 20 -21 28 -21 8 0 11 3 8 7 -4 3 0 11 7 17 12 9 11 14 -3 28 -10 10
-21 15 -24 11z"/>
<path d="M1664 1925 c-5 -20 -11 -24 -26 -19 -11 3 -19 2 -16 -2 26 -53 33
-64 45 -68 10 -4 11 -1 3 14 -5 10 -10 25 -10 32 1 7 8 0 16 -15 10 -18 21
-26 30 -23 51 21 50 21 34 1 -14 -16 -13 -17 8 -11 12 4 22 3 22 -3 0 -5 3
-18 7 -28 7 -17 6 -17 -11 0 -14 14 -21 15 -32 6 -8 -6 -14 -18 -14 -25 0 -8
-7 -11 -17 -7 -15 5 -14 3 2 -11 l20 -17 -20 3 c-14 2 -19 -2 -17 -14 2 -10
-2 -18 -8 -18 -5 0 -11 7 -11 15 -1 8 -2 20 -3 27 -2 21 -26 21 -26 0 0 -11 6
-23 13 -26 6 -4 -2 -4 -20 -1 -65 9 -43 -37 24 -50 29 -5 40 -3 50 11 10 13
27 18 65 19 32 0 53 5 55 13 3 6 -2 12 -10 12 -10 0 -14 12 -13 44 1 42 2 44
28 40 23 -2 26 -1 15 11 -6 7 -14 13 -17 12 -4 0 -48 10 -75 18 -5 1 -13 2
-16 1 -3 0 -13 5 -21 12 -13 10 -17 10 -21 0 -4 -10 -6 -10 -6 0 -1 7 6 15 14
18 12 5 12 9 -2 30 -20 31 -31 30 -39 -1z m84 -149 c-4 -18 1 -27 16 -34 l21
-11 -21 0 c-25 -1 -35 17 -27 48 7 29 16 26 11 -3z"/>
<path d="M3963 1932 c-10 -17 -8 -23 12 -40 14 -12 27 -17 30 -12 10 16 25 11
25 -7 0 -16 1 -16 18 0 14 15 15 19 3 26 -8 5 -11 15 -8 23 3 8 0 15 -6 15 -7
0 -23 3 -37 7 -19 5 -28 2 -37 -12z"/>
<path d="M1790 1900 c0 -5 5 -10 11 -10 5 0 7 5 4 10 -3 6 -8 10 -11 10 -2 0
-4 -4 -4 -10z"/>
<path d="M3199 1905 c-1 -5 -1 -14 0 -18 1 -5 -8 -6 -19 -2 -11 3 -20 2 -20
-4 0 -5 8 -11 18 -13 9 -3 -2 -8 -24 -12 -35 -6 -42 -11 -40 -31 1 -18 6 -22
23 -19 26 5 73 -12 73 -25 0 -6 -8 -8 -17 -4 -16 5 -16 4 0 -9 17 -12 17 -15
4 -27 -13 -10 -18 -9 -27 9 -7 13 -17 19 -27 16 -8 -4 -23 3 -34 16 -10 13
-18 17 -19 11 0 -7 -9 -13 -20 -13 -10 0 -23 -6 -27 -13 -4 -7 -25 -21 -45
-32 -21 -11 -38 -25 -38 -32 0 -8 -11 -11 -33 -8 -29 4 -33 1 -35 -20 -1 -15
5 -25 16 -28 16 -4 16 -5 0 -6 -12 -1 -15 -6 -11 -18 4 -11 3 -14 -5 -9 -7 4
-12 2 -12 -3 0 -6 -13 -11 -30 -11 -20 0 -30 5 -30 15 0 9 6 12 16 8 12 -4 15
-1 12 13 -2 12 -13 20 -31 22 -21 3 -27 -1 -27 -17 0 -11 5 -23 10 -26 15 -9
12 -25 -4 -25 -8 0 -18 9 -21 20 -3 11 -11 20 -17 20 -5 0 -8 -7 -4 -15 3 -8
1 -15 -5 -15 -7 0 -9 12 -7 29 4 27 3 28 -20 20 -14 -5 -29 -12 -34 -15 -13
-9 25 -65 40 -59 8 3 16 -3 19 -15 6 -24 16 -25 37 -4 15 14 17 14 32 -1 9 -9
14 -24 11 -36 -6 -23 24 -59 49 -59 9 0 14 -6 11 -12 -2 -7 10 -21 27 -31 l31
-17 -47 6 c-40 5 -48 4 -48 -10 0 -16 13 -20 64 -16 18 1 26 -2 21 -9 -3 -6
-10 -9 -15 -6 -4 3 -13 -2 -20 -10 -10 -13 -9 -15 9 -15 12 0 20 -4 17 -9 -10
-16 22 -32 79 -38 30 -3 57 -9 60 -13 2 -3 -9 -4 -25 -2 -22 3 -28 0 -26 -12
1 -8 5 -18 9 -22 4 -4 -1 -13 -11 -20 -16 -13 -16 -13 1 -14 9 0 17 -4 17 -10
0 -17 97 -12 115 6 11 11 27 15 53 12 39 -5 92 8 92 22 0 5 -14 11 -31 15 -21
5 -29 11 -25 22 3 8 6 17 6 19 0 2 9 4 20 4 11 0 20 5 20 10 0 6 -14 10 -31
10 -24 0 -30 -4 -25 -15 3 -8 1 -15 -4 -15 -6 0 -10 6 -10 14 0 10 -17 13 -70
12 -51 -1 -70 3 -70 12 0 9 15 11 63 6 63 -6 64 -6 62 17 -1 14 -12 29 -26 36
-15 8 -18 13 -8 13 8 0 25 9 37 20 17 16 22 17 22 6 0 -8 16 -20 35 -26 19 -6
35 -16 35 -21 0 -13 58 -11 66 3 4 6 2 14 -4 16 -7 2 -19 10 -27 18 -8 8 -19
13 -26 12 -6 -2 -14 3 -16 10 -3 8 2 10 14 7 10 -3 9 -1 -5 6 -14 8 -20 18
-17 29 3 9 -3 27 -14 39 -11 12 -17 30 -14 41 6 22 28 27 39 8 5 -8 2 -9 -9
-5 -24 9 -21 -12 5 -34 14 -13 17 -19 7 -19 -10 -1 -9 -4 4 -11 9 -5 17 -17
17 -24 0 -8 8 -15 18 -16 10 0 12 -3 4 -6 -21 -8 -2 -23 31 -23 18 0 39 -5 47
-10 13 -8 12 -10 -4 -10 -11 0 -17 -2 -14 -5 8 -9 58 6 58 16 0 5 -9 9 -21 9
-11 0 -17 5 -14 10 3 6 -3 10 -14 10 -24 0 -26 8 -7 33 7 9 25 17 40 17 14 0
26 6 26 13 0 7 9 21 21 30 11 10 18 25 15 33 -3 9 -1 12 4 9 17 -10 11 15 -7
34 -10 10 -28 22 -40 25 -13 4 -23 12 -23 18 0 7 5 7 14 -1 17 -14 55 -1 76
25 13 17 13 18 0 7 -13 -10 -18 -8 -28 7 -12 20 -1 37 18 25 5 -3 17 6 26 21
14 20 15 27 5 34 -8 4 -11 17 -7 31 3 13 3 18 0 12 -4 -10 -11 -10 -32 1 -34
18 -83 9 -89 -15 -7 -24 -23 -25 -23 -1 0 28 -20 43 -42 31 -13 -7 -27 -6 -48
3 -35 15 -29 30 8 23 l27 -5 -25 10 c-14 6 -37 9 -52 6 -22 -4 -26 -2 -21 11
5 12 3 14 -6 8 -8 -4 -17 -2 -22 6 -5 8 -9 10 -10 4z m61 -59 c0 -9 -30 -14
-35 -6 -4 6 3 10 14 10 12 0 21 -2 21 -4z m265 -92 c-23 -17 -32 -10 -15 11 7
8 17 12 23 8 6 -4 3 -11 -8 -19z m-127 -67 c-2 -11 -10 -22 -18 -25 -12 -4
-13 -2 -2 9 16 18 15 29 -3 29 -8 0 -15 4 -15 9 0 5 9 7 21 4 13 -4 19 -12 17
-26z m-473 -17 c3 -6 -1 -7 -9 -4 -18 7 -21 14 -7 14 6 0 13 -4 16 -10z m-202
-64 c4 -10 1 -13 -9 -9 -15 6 -19 23 -5 23 5 0 11 -7 14 -14z m271 2 c-3 -4
-9 -8 -15 -8 -5 0 -9 4 -9 8 0 5 7 9 15 9 8 0 12 -4 9 -9z m76 -18 c0 -5 -7
-7 -15 -4 -8 4 -15 8 -15 10 0 2 7 4 15 4 8 0 15 -4 15 -10z m64 4 c23 -9 20
-23 -4 -17 -11 3 -20 9 -20 14 0 11 3 11 24 3z m253 0 c-3 -3 -12 -4 -19 -1
-8 3 -5 6 6 6 11 1 17 -2 13 -5z m-400 -220 c-3 -3 -12 -4 -19 -1 -8 3 -5 6 6
6 11 1 17 -2 13 -5z m153 -68 c0 -2 -9 -6 -20 -9 -11 -3 -20 -1 -20 4 0 5 9 9
20 9 11 0 20 -2 20 -4z m40 -10 c0 -2 -7 -6 -15 -10 -8 -3 -15 -1 -15 4 0 6 7
10 15 10 8 0 15 -2 15 -4z m-130 -46 c0 -5 -7 -7 -15 -4 -8 4 -12 10 -9 15 6
11 24 2 24 -11z"/>
<path d="M4546 1895 c-3 -8 -1 -15 4 -15 6 0 10 7 10 15 0 8 -2 15 -4 15 -2 0
-6 -7 -10 -15z"/>
<path d="M3278 1893 c7 -3 16 -2 19 1 4 3 -2 6 -13 5 -11 0 -14 -3 -6 -6z"/>
<path d="M3074 1866 c-17 -13 -17 -16 -4 -28 8 -7 11 -9 7 -4 -3 5 1 15 11 22
9 7 14 15 11 18 -3 3 -14 -1 -25 -8z"/>
<path d="M1950 1860 c0 -5 -7 -10 -16 -10 -8 0 -12 -4 -9 -10 3 -5 1 -10 -4
-10 -6 0 -11 7 -11 15 0 8 -4 15 -8 15 -4 0 -8 -9 -8 -20 0 -11 6 -20 13 -20
7 0 10 -7 7 -15 -4 -8 -1 -15 5 -15 6 0 11 5 11 10 0 6 4 10 10 10 5 0 6 -7 3
-17 -4 -11 -3 -14 5 -9 17 10 14 -15 -3 -38 -13 -17 -15 -17 -15 -4 0 9 -5 20
-12 24 -7 5 -9 2 -5 -9 3 -9 1 -18 -6 -21 -9 -5 -9 -7 0 -12 7 -3 9 -12 6 -19
-3 -9 5 -19 21 -26 14 -7 23 -16 19 -22 -4 -6 -1 -7 7 -2 10 6 9 11 -4 21 -9
6 -14 14 -9 17 4 2 19 -7 33 -20 14 -13 21 -23 15 -22 -26 4 -24 -3 6 -28 26
-22 42 -27 93 -28 56 -2 63 1 73 22 10 20 8 28 -10 50 -12 13 -29 29 -38 33
-12 7 -15 3 -15 -20 1 -16 4 -32 9 -36 12 -13 8 -24 -8 -18 -8 4 -15 17 -15
31 0 24 -3 25 -35 20 -27 -4 -35 -2 -35 9 0 8 -4 13 -9 10 -5 -3 -14 1 -21 9
-11 13 -8 15 16 15 44 0 62 15 47 37 -7 10 -20 33 -28 52 -11 25 -18 31 -28
23 -7 -5 -21 -6 -32 -1 -17 6 -17 8 -3 8 11 1 15 6 12 16 -7 17 -24 20 -24 5z
m119 -226 c2 -2 2 -6 0 -9 -8 -7 -49 7 -49 17 0 8 38 2 49 -8z"/>
<path d="M2240 1851 c0 -5 -10 -7 -22 -4 -21 4 -22 3 -4 -7 14 -10 21 -9 34 4
11 10 12 16 4 16 -7 0 -12 -4 -12 -9z"/>
<path d="M2270 1848 c0 -10 -7 -18 -16 -18 -8 0 -12 -4 -9 -10 3 -5 -10 -3
-29 5 -48 20 -51 19 -51 -14 0 -29 1 -30 52 -28 51 2 61 8 68 43 2 6 -1 18 -6
25 -7 11 -9 10 -9 -3z"/>
<path d="M4387 1836 c-4 -10 1 -12 14 -9 23 6 24 9 5 16 -8 3 -17 0 -19 -7z"/>
<path d="M1380 1807 c25 -42 40 -55 40 -34 0 7 -14 26 -31 43 l-31 29 22 -38z"/>
<path d="M2340 1831 c0 -5 6 -14 13 -20 10 -8 14 -7 14 4 0 8 -6 16 -14 19 -7
3 -13 2 -13 -3z"/>
<path d="M3608 1833 c7 -3 16 -2 19 1 4 3 -2 6 -13 5 -11 0 -14 -3 -6 -6z"/>
<path d="M3655 1830 c-3 -5 1 -10 9 -10 9 0 16 5 16 10 0 6 -4 10 -9 10 -6 0
-13 -4 -16 -10z"/>
<path d="M3758 1818 c-6 -16 15 -38 35 -38 19 0 40 26 32 40 -9 14 -62 13 -67
-2z"/>
<path d="M4224 1805 c-21 -19 -29 -22 -36 -13 -5 9 -8 7 -8 -7 0 -15 -2 -17
-9 -6 -5 8 -11 9 -15 3 -7 -12 19 -23 38 -16 9 4 14 0 12 -10 -4 -26 -15 -30
-40 -16 -21 11 -27 10 -41 -4 -10 -9 -15 -25 -12 -36 3 -13 -2 -20 -20 -25
-14 -3 -23 -9 -20 -12 3 -3 20 -1 36 5 19 7 31 7 31 1 0 -5 -7 -9 -15 -9 -18
0 -19 -5 -4 -32 10 -19 9 -20 -17 -14 -16 4 -33 13 -37 19 -6 8 -7 5 -3 -6 3
-10 6 -21 6 -23 0 -3 5 -2 10 1 6 3 10 2 10 -3 0 -5 -24 -10 -52 -10 -36 0
-47 2 -33 8 11 4 23 6 26 4 4 -2 9 3 13 11 7 20 -28 20 -48 -1 -12 -11 -13
-20 -6 -34 8 -15 7 -18 -2 -15 -15 6 -98 -44 -98 -58 0 -5 7 -4 15 3 8 6 19 9
25 5 6 -4 9 -1 8 6 -2 6 3 14 11 17 8 3 11 0 7 -7 -5 -7 -1 -9 8 -5 9 3 14 10
11 15 -3 4 19 6 50 3 58 -6 76 8 33 26 -26 10 -26 10 20 14 17 2 32 0 32 -5 0
-5 7 -9 16 -9 10 0 14 5 10 15 -3 9 1 18 8 21 8 3 13 15 12 28 -2 16 3 22 18
24 11 0 22 6 24 12 6 16 20 12 25 -7 3 -10 4 -5 4 10 -1 25 -4 27 -26 22 -22
-6 -23 -4 -11 10 8 9 22 14 32 12 21 -6 43 26 34 49 -3 8 0 13 7 11 7 -1 12 5
12 13 0 8 -6 14 -14 12 -8 -2 -11 3 -8 13 9 21 2 19 -29 -10z m-70 -93 c-22
-5 -31 7 -14 18 9 6 17 5 22 -3 4 -7 1 -13 -8 -15z"/>
<path d="M4371 1801 c11 -18 11 -25 2 -28 -7 -3 -13 -9 -13 -15 0 -6 6 -6 15
2 20 16 19 34 -2 51 -15 13 -15 12 -2 -10z"/>
<path d="M2467 1802 c-17 -4 -17 -5 3 -19 12 -9 25 -11 30 -7 12 13 -11 30
-33 26z"/>
<path d="M3595 1801 c3 -5 1 -12 -5 -16 -5 -3 -10 -13 -10 -21 0 -11 4 -12 19
-4 31 16 46 13 30 -7 -12 -15 -12 -16 6 -9 11 5 36 15 55 22 19 7 31 13 25 14
-5 0 -1 7 9 15 11 8 15 15 10 15 -6 0 -15 -5 -22 -12 -9 -9 -15 -9 -24 0 -14
14 -102 17 -93 3z"/>
<path d="M2145 1760 c6 -24 5 -24 -9 -6 -20 25 -29 17 -10 -8 19 -27 42 -7 25
21 -11 16 -11 15 -6 -7z"/>
<path d="M2435 1771 c3 -5 1 -12 -4 -15 -5 -4 -12 -2 -16 4 -3 5 -10 10 -16
10 -5 0 -4 -9 3 -20 7 -10 14 -17 17 -15 2 3 10 -4 18 -15 8 -11 23 -20 34
-20 12 0 19 -5 16 -12 -5 -14 -7 -14 -51 -4 -26 7 -28 6 -16 -9 26 -31 70 -47
111 -40 21 4 39 11 39 17 0 6 7 8 15 5 8 -4 17 -2 20 3 3 5 -6 12 -20 16 -15
4 -24 12 -21 19 5 13 -45 55 -66 55 -7 0 -22 7 -32 15 -22 17 -40 20 -31 6z"/>
<path d="M4032 1764 c-14 -16 -5 -18 17 -5 7 5 9 11 5 14 -5 3 -15 -1 -22 -9z"/>
<path d="M3877 1763 c-4 -3 -7 -11 -7 -17 0 -6 5 -5 12 2 6 6 9 14 7 17 -3 3
-9 2 -12 -2z"/>
<path d="M4491 1758 c0 -9 -4 -25 -7 -35 -5 -17 -5 -17 6 0 6 10 9 25 7 35 -4
15 -5 15 -6 0z"/>
<path d="M3716 1714 c-24 -24 -31 -24 -27 0 1 5 -5 6 -14 2 -9 -3 -22 -6 -27
-6 -6 0 -8 -3 -5 -7 4 -3 -9 -17 -28 -30 -19 -13 -35 -27 -36 -31 0 -4 -2 -15
-4 -25 -2 -10 1 -14 7 -10 8 4 9 -4 5 -25 -4 -18 -3 -32 2 -32 5 0 4 -14 -2
-30 -10 -27 -13 -29 -23 -15 -10 14 -12 14 -18 0 -3 -8 -12 -15 -19 -15 -8 0
-20 -7 -27 -15 -18 -22 8 -20 33 3 19 16 20 16 15 -5 -4 -13 -2 -23 3 -23 5 0
9 5 9 11 0 5 4 8 10 4 5 -3 16 8 25 25 8 16 23 30 33 30 9 0 29 6 43 14 14 7
48 16 75 20 83 12 182 71 170 101 -3 8 11 20 34 30 39 18 82 55 63 55 -5 0
-18 -7 -29 -15 -10 -8 -27 -15 -36 -15 -17 0 -73 -61 -73 -79 0 -15 -54 -53
-65 -46 -15 9 -12 25 5 25 8 0 15 5 15 11 0 5 4 8 8 5 4 -2 8 4 8 14 0 10 -6
16 -13 13 -8 -3 -13 3 -13 16 0 22 -33 30 -45 11 -3 -5 -15 -15 -25 -20 -16
-8 -18 -8 -14 5 4 8 12 15 20 15 16 0 19 16 4 25 -5 3 -10 1 -10 -5 0 -6 -5
-8 -11 -5 -7 5 -4 14 7 26 26 29 0 23 -30 -7z m-76 -69 c-10 -12 -10 -15 3
-15 8 0 17 6 20 13 2 6 7 9 11 5 11 -10 -13 -48 -30 -48 -8 0 -12 5 -9 10 3 6
1 10 -4 10 -15 0 -14 37 2 43 18 6 21 -1 7 -18z m165 15 c-3 -5 -13 -10 -21
-10 -8 0 -12 5 -9 10 3 6 13 10 21 10 8 0 12 -4 9 -10z m-95 -20 c0 -5 -4 -10
-10 -10 -5 0 -10 5 -10 10 0 6 5 10 10 10 6 0 10 -4 10 -10z"/>
<path d="M4323 1725 c-7 -8 -13 -21 -13 -30 0 -9 -3 -14 -7 -12 -5 3 -14 -1
-21 -9 -10 -11 -7 -13 19 -7 26 5 31 3 24 -8 -5 -8 -5 -11 0 -7 4 4 15 2 23
-5 13 -11 14 -9 2 13 -12 23 -12 24 4 11 13 -11 19 -12 29 -2 9 10 8 11 -5 6
-21 -8 -24 5 -5 24 10 11 8 12 -12 6 -21 -6 -23 -5 -18 14 6 24 -2 27 -20 6z"/>
<path d="M2230 1717 c0 -19 21 -37 42 -37 25 0 22 15 -7 34 -29 19 -35 20 -35
3z"/>
<path d="M2602 1708 c5 -15 28 -23 28 -10 0 5 -7 13 -16 16 -10 4 -14 1 -12
-6z"/>
<path d="M1500 1704 c0 -4 16 -22 35 -41 20 -19 34 -40 33 -46 -1 -7 6 -24 15
-39 18 -26 26 -27 111 -19 5 1 -9 15 -32 33 -23 18 -42 36 -42 40 0 4 -6 8
-14 8 -7 0 -34 16 -60 35 -25 20 -46 33 -46 29z"/>
<path d="M1405 1650 c3 -5 8 -10 11 -10 2 0 4 5 4 10 0 6 -5 10 -11 10 -5 0
-7 -4 -4 -10z"/>
<path d="M4085 1640 c-3 -5 -1 -10 4 -10 6 0 11 5 11 10 0 6 -2 10 -4 10 -3 0
-8 -4 -11 -10z"/>
<path d="M2360 1630 c0 -5 7 -10 16 -10 8 0 12 5 9 10 -3 6 -10 10 -16 10 -5
0 -9 -4 -9 -10z"/>
<path d="M4229 1629 c-8 -5 -25 -9 -38 -9 -15 0 -21 -5 -18 -13 3 -8 -3 -20
-14 -28 -19 -14 -28 -46 -9 -34 6 3 10 2 10 -4 0 -15 -18 -23 -25 -11 -3 5
-14 10 -23 9 -12 0 -11 -3 6 -9 27 -11 28 -18 5 -36 -17 -13 -17 -14 0 -8 9 3
17 1 17 -5 0 -6 6 -11 13 -11 16 0 40 38 32 50 -4 6 3 10 13 10 17 0 72 57 72
75 0 16 -28 33 -41 24z"/>
<path d="M3922 1618 c7 -19 38 -22 38 -4 0 10 -9 16 -21 16 -12 0 -19 -5 -17
-12z"/>
<path d="M2380 1597 c0 -7 9 -13 20 -14 11 -1 20 0 20 2 0 2 -9 9 -20 15 -15
8 -20 8 -20 -3z"/>
<path d="M4363 1603 c16 -4 16 -6 -3 -30 -11 -14 -18 -28 -15 -31 8 -8 32 19
40 46 5 18 3 22 -17 21 -17 -1 -18 -3 -5 -6z"/>
<path d="M4307 1593 c-4 -3 -7 -11 -7 -17 0 -6 5 -5 12 2 6 6 9 14 7 17 -3 3
-9 2 -12 -2z"/>
<path d="M2440 1580 c0 -5 5 -10 11 -10 5 0 7 5 4 10 -3 6 -8 10 -11 10 -2 0
-4 -4 -4 -10z"/>
<path d="M1808 1561 c-13 -13 -14 -19 -4 -34 16 -21 46 -23 46 -2 0 9 -6 12
-15 9 -8 -4 -15 -2 -15 4 0 6 4 12 10 14 5 2 6 8 2 14 -5 8 -12 6 -24 -5z"/>
<path d="M3900 1565 c0 -7 -6 -15 -12 -18 -8 -2 -9 -8 -4 -13 5 -5 11 -4 13 4
3 6 11 12 18 12 23 0 26 17 5 23 -13 3 -20 0 -20 -8z"/>
<path d="M2368 1545 c-8 -19 -14 -22 -24 -14 -17 14 -103 14 -117 0 -6 -6 -11
-27 -11 -48 -1 -21 -5 -42 -11 -46 -6 -6 -6 -10 3 -14 26 -10 10 -23 -28 -23
-22 0 -40 -4 -40 -8 0 -10 47 -52 58 -52 5 0 17 -7 28 -15 18 -15 18 -16 -5
-13 -29 4 -40 -19 -14 -28 48 -16 49 -16 35 -21 -9 -3 2 -16 29 -34 28 -18 46
-25 50 -17 4 6 12 7 18 3 23 -14 71 -17 71 -4 0 8 11 10 34 6 28 -4 36 -2 46
19 12 21 20 24 72 24 32 0 58 4 58 9 0 5 16 15 35 22 37 14 46 38 21 58 -8 7
-13 23 -10 37 3 19 -1 27 -21 36 -14 6 -25 19 -25 28 0 22 -20 40 -45 40 -16
0 -17 2 -5 10 9 6 10 10 3 10 -6 0 -15 -4 -18 -10 -4 -6 -14 -4 -28 4 -12 8
-38 18 -59 21 -20 4 -45 15 -57 26 -26 24 -29 24 -43 -6z m207 -85 c3 -5 1
-10 -4 -10 -6 0 -11 5 -11 10 0 6 2 10 4 10 3 0 8 -4 11 -10z m3 -61 c12 -5
22 -10 22 -13 0 -5 -91 22 -99 30 -7 6 42 -4 77 -17z m-298 -19 c0 -5 -5 -10
-11 -10 -5 0 -7 5 -4 10 3 6 8 10 11 10 2 0 4 -4 4 -10z m80 -140 c0 -5 -2
-10 -4 -10 -3 0 -8 5 -11 10 -3 6 -1 10 4 10 6 0 11 -4 11 -10z"/>
<path d="M1594 1534 c15 -14 31 -23 34 -20 6 7 -39 45 -53 45 -5 0 3 -11 19
-25z"/>
<path d="M1920 1544 c0 -23 64 -52 75 -33 4 5 0 9 -7 9 -10 0 -9 3 2 10 8 5
11 12 7 17 -4 4 -16 2 -27 -5 -12 -7 -21 -8 -25 -2 -7 11 -25 14 -25 4z"/>
<path d="M3500 1546 c0 -2 7 -7 16 -10 8 -3 12 -2 9 4 -6 10 -25 14 -25 6z"/>
<path d="M3722 1539 c-19 -4 -39 -12 -45 -18 -6 -6 -21 -11 -34 -11 -30 0 -55
-46 -32 -61 8 -5 19 -8 24 -8 6 0 4 3 -2 6 -7 2 -13 9 -13 15 0 6 9 3 20 -7
26 -24 12 -41 -41 -50 -57 -10 -64 -29 -7 -21 24 4 55 2 69 -3 13 -5 19 -10
12 -10 -7 -1 -10 -7 -8 -14 4 -8 21 -11 50 -9 28 3 45 0 45 -7 0 -16 29 -14
89 8 36 13 48 20 36 25 -9 3 -14 9 -12 14 7 10 -14 37 -33 45 -15 5 20 11 48
8 25 -4 11 17 -22 33 -49 23 -69 20 -95 -15 -13 -18 -19 -29 -12 -25 14 9 14
0 1 -25 -15 -27 -33 -24 -24 4 6 21 6 21 -13 5 -22 -20 -33 -23 -33 -8 0 6 11
16 25 22 14 6 21 14 16 17 -5 4 -11 20 -13 36 -3 30 3 34 41 24 18 -5 27 27 9
33 -7 3 -28 1 -46 -3z m-2 -169 c0 -5 -4 -10 -10 -10 -5 0 -10 5 -10 10 0 6 5
10 10 10 6 0 10 -4 10 -10z"/>
<path d="M3982 1518 c-15 -15 -15 -28 -1 -28 15 0 39 26 32 34 -9 9 -18 7 -31
-6z"/>
<path d="M4238 1493 c-21 -5 -23 -19 -5 -29 6 -4 9 -4 5 1 -4 4 0 14 10 21 18
14 17 14 -10 7z"/>
<path d="M3921 1471 c-10 -7 -10 -10 -1 -16 9 -6 9 -10 -1 -16 -8 -5 -9 -9 -3
-9 6 0 17 7 24 15 16 19 1 38 -19 26z"/>
<path d="M4278 1473 c7 -3 16 -2 19 1 4 3 -2 6 -13 5 -11 0 -14 -3 -6 -6z"/>
<path d="M4185 1460 c3 -5 8 -10 11 -10 2 0 4 5 4 10 0 6 -5 10 -11 10 -5 0
-7 -4 -4 -10z"/>
<path d="M3937 1422 l-27 -28 35 -1 c32 -1 34 1 23 15 -11 13 -10 15 5 9 10
-4 26 -7 35 -7 15 0 15 -2 2 -11 -11 -8 -9 -9 10 -3 32 9 72 35 65 42 -3 3
-11 0 -17 -6 -17 -17 -54 -15 -72 3 -20 21 -28 19 -59 -13z"/>
<path d="M3588 1433 c7 -3 16 -2 19 1 4 3 -2 6 -13 5 -11 0 -14 -3 -6 -6z"/>
<path d="M4183 1404 c0 -17 2 -22 7 -13 5 6 6 18 3 26 -8 19 -10 16 -10 -13z"/>
<path d="M4099 1402 c7 -13 11 -25 9 -26 -2 -2 -12 -9 -23 -15 -15 -9 -16 -11
-2 -7 9 3 17 1 17 -5 0 -6 5 -7 10 -4 16 10 12 51 -7 66 -15 13 -15 12 -4 -9z"/>
<path d="M2036 1393 c-6 -14 -5 -15 5 -6 7 7 10 15 7 18 -3 3 -9 -2 -12 -12z"/>
<path d="M3500 1400 c0 -13 11 -13 30 0 12 8 11 10 -7 10 -13 0 -23 -4 -23
-10z"/>
<path d="M1888 1352 c30 -26 42 -45 42 -64 0 -22 8 -31 54 -52 72 -34 97 -34
58 -1 -17 14 -35 25 -41 25 -6 0 -11 5 -11 11 0 6 -7 9 -15 5 -8 -3 -15 -1
-15 3 0 5 7 11 15 15 25 9 17 22 -35 50 -27 15 -52 31 -55 36 -4 6 -14 10 -23
10 -12 -1 -3 -13 26 -38z"/>
<path d="M3986 1365 c-25 -19 -16 -19 20 0 16 8 22 15 14 15 -8 -1 -24 -7 -34
-15z"/>
<path d="M2004 1349 c15 -12 30 -18 33 -15 8 8 -27 35 -46 36 -7 0 -2 -10 13
-21z"/>
<path d="M3525 1360 c-3 -5 0 -10 9 -10 8 0 21 -3 30 -6 11 -4 16 -1 16 10 0
18 -45 23 -55 6z"/>
<path d="M3280 1348 c0 -4 12 -8 27 -8 14 0 23 3 19 7 -10 10 -46 11 -46 1z"/>
<path d="M3598 1333 c7 -3 16 -2 19 1 4 3 -2 6 -13 5 -11 0 -14 -3 -6 -6z"/>
<path d="M3655 1330 l-30 -8 37 -1 c20 0 40 4 43 9 7 11 -6 11 -50 0z"/>
<path d="M4011 1317 c-1 -11 -6 -15 -13 -11 -7 4 -8 3 -4 -5 10 -16 64 -7 85
14 15 15 13 15 -21 1 -34 -15 -37 -14 -41 2 -4 15 -5 15 -6 -1z"/>
<path d="M3965 1280 c-3 -6 1 -7 9 -4 18 7 21 14 7 14 -6 0 -13 -4 -16 -10z"/>
<path d="M2150 1272 c0 -4 9 -8 19 -8 11 0 17 4 15 8 -3 4 -12 8 -20 8 -8 0
-14 -4 -14 -8z"/>
<path d="M2880 1265 c0 -11 12 -15 45 -15 25 0 45 5 45 11 0 5 -4 8 -9 4 -5
-3 -12 -1 -16 5 -10 16 -65 12 -65 -5z"/>
<path d="M2645 1260 c-3 -5 1 -10 9 -10 9 0 16 5 16 10 0 6 -4 10 -9 10 -6 0
-13 -4 -16 -10z"/>
<path d="M2716 1258 c3 -4 -2 -8 -10 -8 -21 0 -21 -26 0 -34 12 -5 15 -2 10 9
-4 11 4 20 27 30 l32 15 -32 -2 c-17 -1 -29 -6 -27 -10z"/>
<path d="M3317 1264 c-11 -12 6 -34 27 -34 17 0 19 -2 6 -11 -13 -9 -13 -10 0
-6 8 2 16 14 18 26 3 20 0 22 -18 16 -15 -5 -20 -4 -16 4 7 11 -6 16 -17 5z"/>
<path d="M3410 1260 c0 -5 7 -10 15 -10 8 0 15 -5 15 -11 0 -5 -4 -8 -9 -4 -5
3 -12 1 -16 -5 -7 -11 5 -13 29 -4 27 10 20 44 -9 44 -14 0 -25 -4 -25 -10z"/>
<path d="M3917 1230 c3 -11 9 -17 14 -15 10 7 1 35 -11 35 -5 0 -6 -9 -3 -20z"/>
<path d="M3940 1240 c0 -5 5 -10 10 -10 6 0 10 5 10 10 0 6 -4 10 -10 10 -5 0
-10 -4 -10 -10z"/>
<path d="M3854 1225 c-12 -8 -24 -12 -27 -9 -3 3 -8 1 -11 -4 -8 -14 57 -9 72
5 27 26 0 33 -34 8z"/>
<path d="M2750 1220 c0 -5 7 -10 15 -10 8 0 15 -4 15 -9 0 -5 9 -7 20 -4 24 6
26 19 4 27 -24 9 -54 7 -54 -4z"/>
<path d="M3360 1189 c0 -5 5 -7 10 -4 6 3 10 8 10 11 0 2 -4 4 -10 4 -5 0 -10
-5 -10 -11z"/>
<path d="M3485 1191 c-6 -11 9 -23 19 -14 9 9 7 23 -3 23 -6 0 -12 -4 -16 -9z"/>
<path d="M2113 1175 c4 -8 -1 -19 -11 -24 -9 -6 -12 -11 -5 -11 6 0 15 5 18
10 4 6 10 8 14 6 4 -3 8 1 8 9 0 8 -7 17 -15 20 -10 3 -12 0 -9 -10z"/>
<path d="M2540 1181 c0 -6 3 -10 8 -9 4 1 25 -4 46 -10 22 -6 42 -10 44 -7 2
2 -11 8 -30 13 -18 5 -41 13 -50 17 -11 4 -18 3 -18 -4z"/>
<path d="M2860 1182 c0 -7 -7 -12 -15 -12 -8 0 -15 -4 -15 -10 0 -5 6 -10 14
-10 7 0 29 -3 47 -6 19 -4 31 -3 27 1 -4 5 -3 14 3 22 9 10 6 13 -15 13 -19 0
-25 -4 -21 -12 4 -7 -1 -4 -9 6 -9 11 -16 14 -16 8z"/>
<path d="M2960 1175 c-14 -8 -20 -14 -14 -15 5 0 19 7 30 15 24 18 16 19 -16
0z"/>
<path d="M3595 1160 c-6 -19 -12 -21 -41 -17 -20 4 -32 2 -29 -4 12 -18 64
-10 75 12 7 11 9 23 7 26 -3 2 -8 -5 -12 -17z"/>
<path d="M2802 1144 c-8 -9 -20 -11 -35 -5 -18 6 -57 7 -86 2 -3 -1 0 -6 7
-13 6 -6 42 -13 79 -14 38 -1 81 -7 96 -13 34 -13 120 -15 113 -2 -3 5 -20 11
-38 14 -57 9 -111 26 -118 37 -3 4 -11 2 -18 -6z"/>
<path d="M2158 1143 c6 -2 9 -10 6 -15 -4 -7 -2 -8 4 -4 18 11 14 26 -5 25
-11 0 -13 -3 -5 -6z"/>
<path d="M2594 1139 c-3 -5 9 -9 25 -9 17 0 31 2 31 4 0 8 -51 13 -56 5z"/>
<path d="M3214 1135 c-8 -19 9 -40 24 -31 13 8 9 39 -6 44 -7 2 -15 -4 -18
-13z"/>
<path d="M3422 1125 c0 -16 2 -22 5 -12 2 9 2 23 0 30 -3 6 -5 -1 -5 -18z"/>
<path d="M3724 1134 c-18 -14 -18 -15 4 -4 12 6 22 13 22 15 0 8 -5 6 -26 -11z"/>
<path d="M3665 1110 c-16 -10 -39 -19 -50 -20 -14 -2 -11 -5 10 -10 52 -13 68
-12 61 6 -4 9 -1 23 5 30 15 18 11 17 -26 -6z"/>
<path d="M2160 1100 c0 -6 7 -10 15 -10 8 0 15 2 15 4 0 2 -7 6 -15 10 -8 3
-15 1 -15 -4z"/>
<path d="M2410 1090 c0 -5 7 -10 15 -10 8 0 15 5 15 10 0 6 -7 10 -15 10 -8 0
-15 -4 -15 -10z"/>
<path d="M3697 1070 c-9 -11 -13 -20 -9 -20 10 1 42 26 42 34 0 12 -16 6 -33
-14z"/>
<path d="M2367 1065 c5 -14 3 -17 -10 -12 -11 4 -14 2 -10 -9 4 -11 8 -12 19
-3 12 10 13 9 8 -5 -3 -9 -1 -16 5 -16 6 0 10 3 10 8 -5 28 2 33 23 18 12 -9
27 -16 33 -16 5 0 2 5 -8 11 -9 6 -15 14 -12 18 2 5 -6 7 -18 7 -12 -1 -28 2
-35 7 -9 7 -11 5 -5 -8z"/>
<path d="M2505 1072 c-39 -8 -36 -20 5 -27 26 -4 38 -11 33 -16 -6 -6 -19 -6
-35 0 -30 11 -56 0 -36 -16 7 -6 23 -14 35 -17 18 -6 20 -10 11 -20 -7 -7 -21
-11 -32 -8 -13 3 -17 1 -14 -8 5 -15 28 -23 138 -45 124 -25 127 -25 82 -5
-62 28 -46 43 38 34 39 -4 70 -2 73 3 3 5 1 10 -6 11 -7 0 -38 5 -71 11 -32 6
-61 10 -65 10 -13 -2 -51 14 -51 21 0 4 -11 11 -25 14 -14 4 -25 11 -25 16 0
6 9 6 25 0 18 -7 23 -6 19 4 -7 17 -73 43 -99 38z"/>
<path d="M2660 1069 c0 -5 5 -7 10 -4 6 3 10 8 10 11 0 2 -4 4 -10 4 -5 0 -10
-5 -10 -11z"/>
<path d="M3785 1070 c-3 -5 -1 -10 4 -10 6 0 11 5 11 10 0 6 -2 10 -4 10 -3 0
-8 -4 -11 -10z"/>
<path d="M2823 1063 c-23 -9 11 -30 58 -36 24 -3 35 -3 24 0 -11 3 -26 14 -33
24 -13 19 -26 22 -49 12z"/>
<path d="M3628 1049 c-10 -5 -18 -15 -18 -21 0 -7 4 -7 13 1 8 6 16 9 19 6 3
-3 11 1 18 10 10 12 10 15 -1 15 -8 0 -22 -5 -31 -11z"/>
<path d="M2745 1040 c3 -5 8 -10 11 -10 2 0 4 5 4 10 0 6 -5 10 -11 10 -5 0
-7 -4 -4 -10z"/>
<path d="M3417 1027 c-3 -9 -13 -17 -22 -17 -32 0 -13 -16 20 -17 26 -1 33 2
27 10 -5 7 -11 19 -14 26 -3 12 -6 12 -11 -2z"/>
<path d="M2317 1019 c7 -7 15 -10 18 -7 3 3 -2 9 -12 12 -14 6 -15 5 -6 -5z"/>
<path d="M2630 1026 c0 -7 40 -14 44 -7 3 4 -6 8 -20 9 -13 1 -24 0 -24 -2z"/>
<path d="M3710 1020 c0 -5 7 -7 15 -4 8 4 15 8 15 10 0 2 -7 4 -15 4 -8 0 -15
-4 -15 -10z"/>
<path d="M2847 1003 c-3 -5 9 -9 26 -10 24 -2 28 0 17 7 -18 12 -37 13 -43 3z"/>
<path d="M2770 991 c0 -6 4 -13 10 -16 6 -3 7 1 4 9 -7 18 -14 21 -14 7z"/>
<path d="M3288 989 c-2 -6 -17 -12 -33 -13 -17 -1 -40 -7 -53 -14 -12 -7 -26
-11 -30 -9 -4 3 -18 0 -32 -6 -14 -5 -31 -11 -38 -13 -8 -1 -16 -5 -20 -8 -11
-12 94 -5 117 7 16 8 49 10 93 7 71 -5 88 -4 88 10 0 4 -10 6 -22 3 -19 -5
-21 -3 -10 8 6 7 12 16 12 19 0 4 -6 7 -12 7 -7 0 -23 3 -35 7 -13 4 -23 2
-25 -5z"/>
<path d="M2438 973 c7 -3 16 -2 19 1 4 3 -2 6 -13 5 -11 0 -14 -3 -6 -6z"/>
<path d="M3393 933 c0 -6 20 -13 49 -15 26 -1 48 1 48 6 0 4 6 6 14 3 8 -3 17
1 20 8 4 11 0 12 -20 5 -32 -12 -77 -13 -70 -1 3 5 -5 8 -17 7 -13 0 -24 -6
-24 -13z"/>
<path d="M2825 910 c-7 -11 35 -11 80 0 26 7 23 8 -22 9 -28 0 -55 -3 -58 -9z"/>
<path d="M2988 903 c7 -3 16 -2 19 1 4 3 -2 6 -13 5 -11 0 -14 -3 -6 -6z"/>
</g>
</svg>
